<svg width="1475" height="556" viewBox="0 0 1475 556" fill="none" xmlns="http://www.w3.org/2000/svg">
<path d="M860.301 82.0008C849.001 82.1008 839.901 91.3008 840.001 102.501C840.101 113.801 860.701 148.201 860.701 148.201C860.701 148.201 880.901 113.501 880.801 102.201C880.701 91.0008 871.501 81.9008 860.301 82.0008ZM860.501 111.601C855.101 111.601 850.701 107.301 850.701 101.901C850.701 96.5008 855.001 92.1008 860.401 92.1008C865.801 92.1008 870.201 96.4008 870.201 101.801C870.201 107.101 865.901 111.501 860.501 111.601Z" fill="url(#paint0_linear)"/>
<path opacity="0.62" d="M850.901 130.601C855.901 140.201 860.701 148.301 860.701 148.301C860.701 148.301 875.501 122.901 879.701 108.501C875.101 120.301 860.701 130.701 850.901 130.601Z" fill="url(#paint1_linear)"/>
<g opacity="0.6">
<path d="M184.829 158.554C165.442 158.726 149.83 174.51 150.001 193.725C150.173 213.111 185.515 272.129 185.515 272.129C185.515 272.129 220.171 212.597 219.999 193.21C219.828 173.995 204.044 158.383 184.829 158.554ZM185.172 209.337C175.908 209.337 168.359 201.96 168.359 192.695C168.359 183.431 175.736 175.882 185 175.882C194.265 175.882 201.814 183.259 201.814 192.524C201.814 201.617 194.436 209.165 185.172 209.337Z" fill="url(#paint2_linear)"/>
<path opacity="0.62" d="M168.702 241.934C177.28 258.404 185.515 272.301 185.515 272.301C185.515 272.301 210.906 228.724 218.112 204.019C210.22 224.263 185.515 242.106 168.702 241.934Z" fill="url(#paint3_linear)"/>
</g>
<path d="M394.301 85.0008C383.001 85.1008 373.901 94.3008 374.001 105.501C374.101 116.801 394.701 151.201 394.701 151.201C394.701 151.201 414.901 116.501 414.801 105.201C414.701 94.0008 405.501 84.9008 394.301 85.0008ZM394.501 114.601C389.101 114.601 384.701 110.301 384.701 104.901C384.701 99.5008 389.001 95.1008 394.401 95.1008C399.801 95.1008 404.201 99.4008 404.201 104.801C404.201 110.101 399.901 114.501 394.501 114.601Z" fill="url(#paint4_linear)"/>
<path opacity="0.62" d="M384.901 133.601C389.901 143.201 394.701 151.301 394.701 151.301C394.701 151.301 409.501 125.901 413.701 111.501C409.101 123.301 394.701 133.701 384.901 133.601Z" fill="url(#paint5_linear)"/>
<path d="M836.223 261.001C816.06 261.18 799.823 277.595 800.001 297.579C800.18 317.742 836.936 379.122 836.936 379.122C836.936 379.122 872.979 317.207 872.801 297.044C872.622 277.06 856.207 260.823 836.223 261.001ZM836.579 313.816C826.944 313.816 819.093 306.144 819.093 296.509C819.093 286.874 826.766 279.023 836.401 279.023C846.036 279.023 853.887 286.695 853.887 296.33C853.887 305.787 846.215 313.638 836.579 313.816Z" fill="url(#paint6_linear)"/>
<path opacity="0.62" d="M819.45 347.719C828.372 364.848 836.936 379.301 836.936 379.301C836.936 379.301 863.344 333.98 870.838 308.286C862.63 329.341 836.936 347.897 819.45 347.719Z" fill="url(#paint7_linear)"/>
<g opacity="0.6">
<path d="M1454.3 489.001C1443 489.101 1433.9 498.301 1434 509.501C1434.1 520.801 1454.7 555.201 1454.7 555.201C1454.7 555.201 1474.9 520.501 1474.8 509.201C1474.7 498.001 1465.5 488.901 1454.3 489.001ZM1454.5 518.601C1449.1 518.601 1444.7 514.301 1444.7 508.901C1444.7 503.501 1449 499.101 1454.4 499.101C1459.8 499.101 1464.2 503.401 1464.2 508.801C1464.2 514.101 1459.9 518.501 1454.5 518.601Z" fill="url(#paint8_linear)"/>
<path opacity="0.62" d="M1444.9 537.601C1449.9 547.201 1454.7 555.301 1454.7 555.301C1454.7 555.301 1469.5 529.901 1473.7 515.501C1469.1 527.301 1454.7 537.701 1444.9 537.601Z" fill="url(#paint9_linear)"/>
</g>
<g opacity="0.6">
<path d="M440.853 324.804C424.236 324.951 410.854 338.48 411.001 354.95C411.148 371.567 441.441 422.154 441.441 422.154C441.441 422.154 471.147 371.126 470.999 354.509C470.852 338.038 457.323 324.657 440.853 324.804ZM441.147 368.332C433.206 368.332 426.736 362.008 426.736 354.067C426.736 346.126 433.059 339.656 441 339.656C448.941 339.656 455.412 345.979 455.412 353.92C455.412 361.714 449.088 368.185 441.147 368.332Z" fill="url(#paint10_linear)"/>
<path opacity="0.62" d="M427.03 396.272C434.383 410.389 441.441 422.301 441.441 422.301C441.441 422.301 463.205 384.949 469.382 363.773C462.617 381.126 441.441 396.419 427.03 396.272Z" fill="url(#paint11_linear)"/>
</g>
<path d="M1134.81 0.804377C1113.77 0.990646 1096.82 18.1274 1097 38.9895C1097.19 60.038 1135.56 124.115 1135.56 124.115C1135.56 124.115 1173.19 59.4791 1173 38.4307C1172.81 17.5686 1155.68 0.618108 1134.81 0.804377ZM1135.19 55.94C1125.13 55.94 1116.93 47.9305 1116.93 37.8719C1116.93 27.8134 1124.94 19.6176 1135 19.6176C1145.06 19.6176 1153.25 27.6271 1153.25 37.6857C1153.25 47.5579 1145.25 55.7538 1135.19 55.94Z" fill="url(#paint12_linear)"/>
<g style="mix-blend-mode:overlay" opacity="0.62">
<path d="M1117.3 91.3312C1126.62 109.213 1135.56 124.301 1135.56 124.301C1135.56 124.301 1163.13 76.9885 1170.95 50.1657C1162.38 72.1455 1135.56 91.5174 1117.3 91.3312Z" fill="url(#paint13_linear)"/>
</g>
<path d="M1328.25 410.502C1311.41 410.651 1297.85 424.36 1298 441.05C1298.15 457.889 1328.85 509.152 1328.85 509.152C1328.85 509.152 1358.95 457.442 1358.8 440.603C1358.65 423.913 1344.94 410.353 1328.25 410.502ZM1328.55 454.611C1320.5 454.611 1313.95 448.203 1313.95 440.156C1313.95 432.109 1320.35 425.553 1328.4 425.553C1336.45 425.553 1343 431.96 1343 440.007C1343 447.905 1336.6 454.462 1328.55 454.611Z" fill="url(#paint14_linear)"/>
<g style="mix-blend-mode:overlay" opacity="0.62">
<path d="M1314.24 482.925C1321.7 497.23 1328.85 509.301 1328.85 509.301C1328.85 509.301 1350.9 471.45 1357.16 449.992C1350.31 467.576 1328.85 483.074 1314.24 482.925Z" fill="url(#paint15_linear)"/>
</g>
<g opacity="0.6">
<path d="M1057.37 182.178C1042.69 182.308 1030.87 194.259 1031 208.807C1031.13 223.486 1057.89 268.171 1057.89 268.171C1057.89 268.171 1084.13 223.096 1084 208.418C1083.87 193.869 1071.92 182.048 1057.37 182.178ZM1057.63 220.628C1050.62 220.628 1044.9 215.043 1044.9 208.028C1044.9 201.014 1050.49 195.298 1057.5 195.298C1064.51 195.298 1070.23 200.884 1070.23 207.898C1070.23 214.783 1064.64 220.498 1057.63 220.628Z" fill="url(#paint16_linear)"/>
<g style="mix-blend-mode:overlay" opacity="0.62">
<path d="M1045.16 245.309C1051.65 257.779 1057.89 268.301 1057.89 268.301C1057.89 268.301 1077.11 235.307 1082.57 216.601C1076.6 231.929 1057.89 245.439 1045.16 245.309Z" fill="url(#paint17_linear)"/>
</g>
</g>
<path d="M223.301 72.0008C212.001 72.1008 202.901 81.3008 203.001 92.5008C203.101 103.801 223.701 138.201 223.701 138.201C223.701 138.201 243.901 103.501 243.801 92.2008C243.701 81.0008 234.501 71.9008 223.301 72.0008ZM223.501 101.601C218.101 101.601 213.701 97.3008 213.701 91.9008C213.701 86.5008 218.001 82.1008 223.401 82.1008C228.801 82.1008 233.201 86.4008 233.201 91.8008C233.201 97.1008 228.901 101.501 223.501 101.601Z" fill="url(#paint18_linear)"/>
<g style="mix-blend-mode:overlay" opacity="0.62">
<path d="M213.901 120.601C218.901 130.201 223.701 138.301 223.701 138.301C223.701 138.301 238.501 112.901 242.701 98.5008C238.101 110.301 223.701 120.701 213.901 120.601Z" fill="url(#paint19_linear)"/>
</g>
<path d="M20.3002 162.001C9.00055 162.101 -0.0991808 171.301 0.000816321 182.5C0.100813 193.8 20.7002 228.199 20.7002 228.199C20.7002 228.199 40.8996 193.5 40.7996 182.2C40.6996 171.001 31.4999 161.901 20.3002 162.001ZM20.5002 191.6C15.1004 191.6 10.7005 187.3 10.7005 181.9C10.7005 176.5 15.0004 172.101 20.4002 172.101C25.8001 172.101 30.1999 176.4 30.1999 181.8C30.1999 187.1 25.9001 191.5 20.5002 191.6Z" fill="url(#paint20_linear)"/>
<g style="mix-blend-mode:overlay" opacity="0.62">
<path d="M10.9004 210.599C15.9002 220.199 20.7001 228.299 20.7001 228.299C20.7001 228.299 35.4997 202.9 39.6996 188.5C35.0997 200.3 20.7001 210.699 10.9004 210.599Z" fill="url(#paint21_linear)"/>
</g>
<defs>
<linearGradient id="paint0_linear" x1="840.089" y1="115.265" x2="880.902" y2="114.984" gradientUnits="userSpaceOnUse">
<stop stop-color="white"/>
<stop offset="1" stop-color="#999999"/>
</linearGradient>
<linearGradient id="paint1_linear" x1="853.218" y1="143.984" x2="874.965" y2="105.71" gradientUnits="userSpaceOnUse">
<stop offset="0.1518" stop-color="white"/>
<stop offset="0.8912" stop-color="white" stop-opacity="0"/>
</linearGradient>
<linearGradient id="paint2_linear" x1="150.153" y1="215.624" x2="220.174" y2="215.141" gradientUnits="userSpaceOnUse">
<stop stop-color="white"/>
<stop offset="1" stop-color="#999999"/>
</linearGradient>
<linearGradient id="paint3_linear" x1="172.678" y1="264.895" x2="209.987" y2="199.231" gradientUnits="userSpaceOnUse">
<stop offset="0.1518" stop-color="white"/>
<stop offset="0.8912" stop-color="white" stop-opacity="0"/>
</linearGradient>
<linearGradient id="paint4_linear" x1="374.089" y1="118.265" x2="414.902" y2="117.984" gradientUnits="userSpaceOnUse">
<stop stop-color="white"/>
<stop offset="1" stop-color="#999999"/>
</linearGradient>
<linearGradient id="paint5_linear" x1="387.218" y1="146.984" x2="408.965" y2="108.71" gradientUnits="userSpaceOnUse">
<stop offset="0.1518" stop-color="white"/>
<stop offset="0.8912" stop-color="white" stop-opacity="0"/>
</linearGradient>
<linearGradient id="paint6_linear" x1="800.159" y1="320.355" x2="872.982" y2="319.853" gradientUnits="userSpaceOnUse">
<stop stop-color="white"/>
<stop offset="1" stop-color="#999999"/>
</linearGradient>
<linearGradient id="paint7_linear" x1="823.586" y1="371.599" x2="862.388" y2="303.307" gradientUnits="userSpaceOnUse">
<stop offset="0.1518" stop-color="white"/>
<stop offset="0.8912" stop-color="white" stop-opacity="0"/>
</linearGradient>
<linearGradient id="paint8_linear" x1="1434.09" y1="522.265" x2="1474.9" y2="521.984" gradientUnits="userSpaceOnUse">
<stop stop-color="white"/>
<stop offset="1" stop-color="#999999"/>
</linearGradient>
<linearGradient id="paint9_linear" x1="1447.22" y1="550.984" x2="1468.97" y2="512.71" gradientUnits="userSpaceOnUse">
<stop offset="0.1518" stop-color="white"/>
<stop offset="0.8912" stop-color="white" stop-opacity="0"/>
</linearGradient>
<linearGradient id="paint10_linear" x1="411.131" y1="373.721" x2="471.149" y2="373.307" gradientUnits="userSpaceOnUse">
<stop stop-color="white"/>
<stop offset="1" stop-color="#999999"/>
</linearGradient>
<linearGradient id="paint11_linear" x1="430.438" y1="415.953" x2="462.418" y2="359.67" gradientUnits="userSpaceOnUse">
<stop offset="0.1518" stop-color="white"/>
<stop offset="0.8912" stop-color="white" stop-opacity="0"/>
</linearGradient>
<linearGradient id="paint12_linear" x1="1097.17" y1="62.7661" x2="1173.19" y2="62.2416" gradientUnits="userSpaceOnUse">
<stop stop-color="#BF233D"/>
<stop offset="1" stop-color="#6A1A1C"/>
</linearGradient>
<linearGradient id="paint13_linear" x1="1121.62" y1="116.26" x2="1162.13" y2="44.968" gradientUnits="userSpaceOnUse">
<stop offset="0.1518" stop-color="white"/>
<stop offset="0.8912" stop-color="white" stop-opacity="0"/>
</linearGradient>
<linearGradient id="paint14_linear" x1="1298.13" y1="460.072" x2="1358.95" y2="459.652" gradientUnits="userSpaceOnUse">
<stop stop-color="#BF233D"/>
<stop offset="1" stop-color="#6A1A1C"/>
</linearGradient>
<linearGradient id="paint15_linear" x1="1317.7" y1="502.868" x2="1350.1" y2="445.833" gradientUnits="userSpaceOnUse">
<stop offset="0.1518" stop-color="white"/>
<stop offset="0.8912" stop-color="white" stop-opacity="0"/>
</linearGradient>
<linearGradient id="paint16_linear" x1="1031.12" y1="225.388" x2="1084.13" y2="225.023" gradientUnits="userSpaceOnUse">
<stop stop-color="#BF233D"/>
<stop offset="1" stop-color="#6A1A1C"/>
</linearGradient>
<linearGradient id="paint17_linear" x1="1048.17" y1="262.694" x2="1076.42" y2="212.977" gradientUnits="userSpaceOnUse">
<stop offset="0.1518" stop-color="white"/>
<stop offset="0.8912" stop-color="white" stop-opacity="0"/>
</linearGradient>
<linearGradient id="paint18_linear" x1="203.089" y1="105.265" x2="243.902" y2="104.984" gradientUnits="userSpaceOnUse">
<stop stop-color="#BF233D"/>
<stop offset="1" stop-color="#6A1A1C"/>
</linearGradient>
<linearGradient id="paint19_linear" x1="216.218" y1="133.984" x2="237.965" y2="95.7104" gradientUnits="userSpaceOnUse">
<stop offset="0.1518" stop-color="white"/>
<stop offset="0.8912" stop-color="white" stop-opacity="0"/>
</linearGradient>
<linearGradient id="paint20_linear" x1="0.0890939" y1="195.264" x2="40.9012" y2="194.983" gradientUnits="userSpaceOnUse">
<stop stop-color="#BF233D"/>
<stop offset="1" stop-color="#6A1A1C"/>
</linearGradient>
<linearGradient id="paint21_linear" x1="13.218" y1="223.982" x2="34.9639" y2="185.71" gradientUnits="userSpaceOnUse">
<stop offset="0.1518" stop-color="white"/>
<stop offset="0.8912" stop-color="white" stop-opacity="0"/>
</linearGradient>
</defs>
</svg>
