<svg width="3725" height="3924" viewBox="0 0 3725 3924" fill="none" xmlns="http://www.w3.org/2000/svg">
<path d="M457.773 3924C437.215 3882.88 442.997 3844.34 452.634 3806.43C457.131 3787.8 464.198 3769.82 469.98 3751.18C471.907 3743.48 475.762 3734.48 473.192 3728.06C462.271 3695.29 477.047 3670.24 496.321 3647.11C534.868 3602.78 549.645 3552.67 537.438 3494.21C529.086 3453.09 538.081 3415.19 568.276 3383.71C592.69 3358.01 606.181 3326.53 604.254 3289.91C602.969 3263.58 617.746 3246.87 638.304 3233.38C652.438 3224.39 656.936 3212.18 657.578 3195.48C658.22 3178.13 662.075 3158.22 671.07 3144.08C698.695 3100.4 694.198 3050.29 705.12 3002.75C707.69 2992.47 714.757 2977.69 723.109 2975.76C769.366 2962.92 785.427 2926.3 794.422 2885.82C800.846 2857.56 816.265 2836.36 835.539 2815.15C849.031 2800.38 857.383 2777.89 862.522 2757.98C868.947 2731.64 881.796 2713.01 908.137 2705.94C926.126 2701.44 929.338 2689.24 931.908 2672.53C934.478 2652.62 942.187 2632.7 949.254 2613.43C972.383 2551.76 1014.14 2503.57 1068.11 2466.95C1081.6 2457.96 1086.74 2446.4 1085.46 2430.34C1082.89 2400.14 1092.52 2378.94 1125.29 2369.3C1136.21 2366.09 1148.42 2353.89 1153.56 2342.96C1173.47 2297.99 1208.17 2267.16 1244.14 2235.68C1262.77 2219.62 1275.62 2196.49 1292.33 2177.22C1299.39 2169.51 1307.1 2159.23 1316.74 2156.66C1344.37 2150.23 1358.5 2134.17 1363.64 2106.55C1365.57 2095.63 1371.99 2085.35 1373.28 2074.43C1378.42 2036.52 1400.26 2016.61 1435.6 2005.04C1499.84 1983.84 1529.39 1929.88 1550.6 1870.77C1555.74 1856.64 1559.59 1846.36 1576.94 1845.08C1608.42 1842.51 1626.41 1827.73 1623.84 1793.68C1622.55 1775.05 1633.47 1766.06 1650.82 1760.27C1693.22 1746.78 1717.63 1709.52 1746.55 1679.33C1765.18 1660.05 1781.24 1636.93 1796.01 1614.44C1807.58 1597.1 1821.71 1588.74 1841.63 1590.67C1862.83 1592.6 1876.96 1582.96 1891.74 1568.19C1914.87 1543.77 1939.28 1520 1966.27 1500.09C2002.89 1472.46 2026.01 1435.2 2051.07 1397.3C2078.05 1356.82 2113.39 1322.13 2145.51 1286.16C2150.01 1281.66 2158.36 1279.73 2164.79 1277.81C2187.27 1272.02 2209.76 1266.24 2232.89 1263.03C2254.09 1259.82 2268.86 1250.18 2275.29 1230.26C2282.36 1209.06 2297.78 1202.64 2318.98 1200.07C2333.75 1198.14 2349.81 1192.36 2362.66 1184.01C2403.14 1157.03 2444.9 1131.33 2466.74 1083.79C2470.6 1076.08 2490.51 1071.58 2502.72 1072.23C2536.13 1073.51 2560.54 1063.23 2578.53 1033.68C2584.95 1022.76 2602.3 1018.9 2613.86 1011.19C2670.4 973.933 2730.79 969.436 2795.04 986.782C2802.75 988.709 2812.38 986.782 2820.74 984.854C2837.44 979.715 2854.79 974.575 2870.21 966.866C2903.61 950.805 2933.81 946.951 2964.65 973.933C2973 981 2992.27 979.072 3005.12 976.503C3026.97 972.006 3044.31 973.29 3052.66 997.703C3061.02 1022.12 3077.72 1033.04 3104.06 1027.9C3123.98 1024.04 3139.4 1031.75 3151.6 1047.81C3162.52 1061.3 3174.73 1073.51 3186.94 1086.36C3189.51 1085.07 3191.43 1083.79 3194 1082.5C3161.24 1020.83 3129.12 959.799 3095.71 897.483C3106.63 905.192 3118.84 911.617 3127.83 920.611C3146.46 938.599 3165.74 938.599 3188.87 930.89C3203 926.393 3219.06 928.962 3234.48 930.247C3242.83 930.89 3251.18 934.744 3260.18 936.672C3302.58 946.951 3341.77 962.369 3377.11 988.709C3418.87 1020.19 3466.41 1042.03 3519.09 1049.74C3524.87 1050.38 3533.87 1054.88 3535.79 1059.38C3546.07 1089.57 3571.13 1104.35 3595.54 1119.12C3624.45 1136.47 3654.01 1151.89 3681.63 1171.16C3697.69 1182.72 3710.54 1199.43 3724.68 1214.2C3723.39 1216.13 3722.11 1218.06 3720.82 1219.34C3657.86 1209.06 3594.9 1199.43 3531.94 1189.15C3477.33 1180.15 3422.72 1171.16 3368.11 1163.45C3359.12 1162.17 3348.84 1164.74 3340.49 1167.95C3326.35 1173.09 3312.22 1179.51 3299.37 1187.86C3273.67 1203.28 3249.9 1211.63 3224.2 1187.86C3218.42 1182.72 3206.21 1182.72 3197.22 1183.37C3161.24 1186.58 3125.9 1191.08 3090.57 1195.57C3082.22 1196.86 3071.94 1197.5 3066.16 1202.64C3002.55 1259.17 2924.17 1272.67 2844.51 1282.94C2805.32 1288.08 2771.27 1300.93 2738.5 1322.78C2702.52 1347.19 2662.69 1367.1 2622.86 1386.38C2601.02 1397.3 2582.38 1408.22 2577.24 1433.92C2574.03 1449.34 2565.68 1457.69 2548.33 1453.83C2544.48 1453.19 2539.98 1454.48 2536.13 1453.83C2498.86 1446.12 2477.66 1458.97 2457.75 1494.31C2439.76 1525.79 2403.78 1547.63 2374.23 1572.68C2371.02 1575.9 2362.02 1573.33 2356.24 1572.04C2342.75 1569.47 2329.9 1565.62 2316.41 1562.4C2315.12 1566.26 2313.84 1568.83 2314.48 1570.76C2326.04 1620.22 2294.56 1643.35 2259.23 1665.84C2241.24 1677.4 2225.82 1694.1 2207.83 1710.16C2186.63 1691.53 2162.22 1670.33 2140.37 1651.06C2123.03 1669.05 2103.75 1688.32 2085.76 1708.88C2069.06 1728.15 2054.93 1750 2038.22 1768.63C2023.45 1784.69 2005.46 1794.97 1982.33 1780.19C1964.34 1802.68 1945.07 1824.52 1929.65 1848.29C1921.94 1861.14 1921.29 1878.48 1918.72 1893.9C1916.15 1912.53 1910.37 1924.74 1889.17 1931.16C1839.06 1946.58 1839.06 1947.87 1845.48 1999.9C1847.41 2018.53 1843.56 2031.38 1827.5 2042.3C1810.15 2053.23 1794.73 2068.64 1777.38 2079.57C1706.71 2123.25 1663.03 2192.63 1611.63 2255.59C1606.49 2261.37 1604.56 2269.73 1601.99 2277.44C1593.64 2304.42 1583.36 2330.76 1578.22 2357.74C1573.08 2387.93 1557.66 2404.64 1528.11 2409.14C1511.41 2411.7 1503.05 2423.27 1495.34 2436.76C1478 2466.31 1459.37 2495.22 1440.74 2524.13C1436.24 2530.56 1430.46 2537.62 1423.39 2540.19C1389.98 2552.4 1370.06 2577.45 1357.22 2608.93C1339.23 2653.9 1307.75 2683.46 1262.77 2700.8C1252.49 2704.66 1242.86 2718.79 1239.65 2729.71C1232.58 2754.77 1219.09 2772.11 1199.81 2789.46C1181.82 2806.16 1167.69 2829.29 1158.7 2852.42C1142.63 2894.82 1127.86 2936.58 1087.38 2962.92C1082.24 2966.13 1079.03 2974.48 1075.82 2980.9C1063.61 3011.1 1049.48 3038.72 1018.64 3054.78C1012.86 3058 1009.65 3068.92 1007.72 3076.63C1005.15 3088.19 1004.51 3100.4 1005.15 3112.6C1005.79 3129.31 999.366 3140.23 985.232 3147.29C960.818 3159.5 945.399 3178.77 936.405 3203.83C935.12 3207.68 933.193 3210.9 931.265 3214.75C919.059 3239.81 906.852 3264.86 894.645 3290.56C879.869 3320.75 845.818 3307.9 822.69 3323.32C804.701 3335.53 793.137 3345.16 796.349 3367.01C799.561 3388.85 791.209 3406.84 777.718 3424.18C757.802 3451.17 737.885 3478.79 720.539 3507.7C710.26 3525.05 702.55 3544.96 699.98 3564.88C696.126 3589.93 688.416 3609.21 666.572 3624.62C644.729 3640.04 623.528 3659.32 606.181 3679.87C595.902 3691.44 593.975 3710.07 588.192 3725.49C582.41 3740.26 578.556 3756.32 570.204 3769.17C543.22 3810.93 514.31 3851.4 485.399 3891.88C478.974 3902.8 468.695 3911.79 457.773 3924Z" fill="#0031D1"/>
<path d="M746.879 2210.62C770.007 2257.52 752.661 2291.57 717.968 2321.76C708.331 2330.12 701.264 2342.96 694.84 2355.17C674.923 2392.43 653.722 2429.69 636.376 2468.24C616.46 2512.57 587.549 2548.54 546.432 2574.24C526.515 2587.09 517.521 2605.08 511.096 2628.21C481.543 2737.42 431.432 2837 364.616 2928.22C358.191 2937.22 350.482 2946.21 346.627 2956.49C327.353 3011.1 296.515 3059.92 265.677 3108.75C250.901 3131.88 241.906 3158.86 229.7 3186.48C209.141 3155.65 206.571 3122.24 216.85 3087.55C221.348 3071.49 227.772 3055.43 236.124 3040.65C254.755 3007.24 257.325 2971.27 249.616 2935.93C241.264 2896.1 251.543 2869.12 288.806 2852.42C292.018 2851.13 295.23 2847.92 300.37 2844.07C261.18 2793.96 292.018 2745.13 305.51 2698.23C311.934 2675.75 336.348 2657.76 353.694 2639.77C364.616 2628.21 371.04 2617.29 360.119 2602.51C342.13 2576.81 343.415 2551.11 361.404 2525.42C367.186 2517.07 369.113 2506.14 372.325 2496.51C394.811 2432.26 417.297 2368.66 438.499 2303.78C444.923 2283.86 447.493 2262.02 449.42 2240.82C450.705 2225.4 455.845 2214.48 471.264 2210.62C501.459 2202.91 517.521 2182.36 523.303 2152.16C535.51 2090.49 586.264 2055.15 622.242 2010.18C623.527 2008.9 624.169 2007.61 625.454 2006.97C671.711 1968.42 701.264 1918.96 714.756 1860.5C718.611 1842.51 728.89 1830.94 746.236 1825.16C755.231 1821.95 763.583 1816.81 772.577 1813.6C811.125 1800.11 840.678 1776.34 852.242 1733.94C840.678 1726.87 827.829 1719.16 811.125 1708.88C820.119 1697.96 827.829 1687.04 836.18 1677.4C849.03 1663.27 863.164 1650.42 876.655 1636.28C906.851 1605.45 906.851 1605.45 899.784 1569.47C926.767 1547.63 954.393 1531.57 973.667 1507.8C994.868 1482.74 991.013 1449.34 985.873 1423C1017.35 1403.72 1049.48 1388.3 1075.82 1366.46C1114.37 1334.34 1136.21 1290.01 1153.56 1243.76C1167.05 1208.42 1187.61 1180.16 1227.44 1173.09C1248 1169.88 1258.92 1158.31 1265.99 1139.04C1285.9 1081.86 1317.38 1032.4 1363 989.994C1396.4 959.8 1422.1 920.611 1452.94 886.562C1460.65 877.568 1472.21 869.216 1483.14 865.362C1514.62 854.44 1554.45 853.798 1577.58 833.882C1600.71 813.967 1607.13 775.421 1622.55 745.868C1626.4 738.159 1634.76 731.735 1641.18 725.953C1643.75 723.383 1648.25 722.098 1652.1 720.813C1715.06 698.971 1763.89 661.067 1798.58 603.89C1804.37 593.611 1816.57 585.259 1827.49 580.12C1876.96 554.423 1926.43 527.44 1977.83 505.597C2024.73 485.682 2056.85 448.421 2091.54 415.014C2101.82 404.735 2110.82 400.238 2124.95 406.02C2148.08 415.014 2169.28 409.232 2191.77 400.88C2263.72 374.54 2336.32 348.201 2410.2 327C2436.54 319.933 2468.03 325.073 2495.65 330.855C2535.48 338.564 2572.1 332.782 2608.08 317.364C2628 308.369 2647.27 309.654 2668.47 314.794C2735.29 330.855 2802.1 344.988 2870.85 360.407C2865.71 363.619 2859.28 369.401 2851.57 371.971C2801.46 390.601 2750.71 407.947 2700.6 426.578C2676.18 435.572 2649.84 443.281 2628.64 457.415C2573.39 494.676 2516.21 524.228 2450.04 535.149C2437.19 537.077 2424.34 546.713 2414.7 556.35C2394.79 575.623 2376.8 598.108 2356.88 617.381C2351.74 622.521 2339.53 627.018 2333.11 624.448C2283.64 605.817 2241.88 618.666 2199.48 647.576C2162.21 673.273 2126.24 698.328 2096.04 732.377C2077.41 753.578 2051.71 768.996 2031.15 788.269C2020.87 797.906 2011.24 808.827 2005.45 821.676C1997.1 839.664 1986.18 851.871 1966.27 848.658C1925.79 842.876 1902.02 864.719 1880.18 895.556C1855.76 930.248 1828.78 963.654 1799.87 994.491C1783.16 1012.48 1763.25 1028.54 1742.69 1041.39C1669.45 1086.36 1612.27 1146.11 1559.59 1214.85C1467.72 1335.62 1366.21 1448.05 1269.84 1565.62C1236.43 1606.09 1205.59 1649.78 1179.25 1694.75C1163.19 1722.37 1146.49 1747.43 1118.22 1763.49C1083.53 1782.76 1062.33 1811.67 1050.76 1849.57C1047.55 1861.14 1039.2 1873.99 1028.92 1879.77C1004.5 1892.62 996.795 1912.53 993.583 1937.59C992.298 1946.58 988.443 1956.22 982.661 1963.29C932.549 2028.17 881.153 2091.13 832.326 2156.66C814.979 2179.79 797.633 2197.77 768.722 2202.91C763.583 2203.56 757.801 2206.77 746.879 2210.62Z" fill="#0031D1"/>
<path d="M3387.39 1905.47C3384.82 1908.04 3381.61 1911.25 3377.75 1913.82C3314.79 1956.22 3251.83 1999.9 3188.23 2041.02C3179.23 2046.8 3165.1 2046.16 3153.53 2045.52C3143.25 2044.87 3133.62 2039.09 3123.98 2035.88C3064.23 2015.32 3032.11 2025.6 2992.92 2077C2964.01 2114.9 2929.96 2143.81 2880.49 2152.16C2836.16 2159.87 2794.4 2177.22 2758.42 2205.48C2754.57 2208.7 2750.71 2211.91 2746.22 2213.19C2696.75 2226.04 2656.91 2253.02 2621.58 2290.29C2610.01 2302.49 2586.89 2305.7 2568.9 2310.84C2551.55 2315.34 2538.06 2323.69 2531.63 2341.04C2531.63 2341.68 2530.99 2342.32 2530.35 2342.96C2514.29 2383.44 2482.81 2407.21 2444.9 2428.41C2346.61 2483.02 2255.38 2547.26 2176.35 2628.85C2166.08 2639.77 2150.66 2646.84 2136.52 2653.26C2120.46 2660.33 2103.76 2666.75 2087.05 2671.25C2036.94 2684.1 2007.39 2720.07 1986.83 2763.76C1971.41 2795.24 1951.49 2819.65 1921.94 2838.28C1905.88 2848.56 1893.03 2863.34 1878.9 2876.19C1870.54 2883.9 1864.76 2894.82 1855.77 2900.6C1810.15 2932.72 1776.75 2972.55 1748.48 3022.02C1728.56 3057.35 1684.23 3077.91 1650.82 3105.54C1643.11 3111.96 1631.55 3118.39 1628.98 3126.74C1609.71 3189.7 1562.16 3230.81 1519.76 3276.42C1504.99 3292.49 1487.64 3308.55 1468.37 3318.83C1440.1 3334.24 1419.54 3353.52 1409.9 3384.35C1402.83 3406.2 1389.99 3421.62 1367.5 3429.32C1338.59 3439.6 1319.31 3460.8 1301.97 3486.5C1269.2 3535.33 1237.08 3584.15 1184.4 3613.7C1195.96 3578.37 1206.24 3541.11 1221.02 3507.06C1226.8 3494.21 1244.15 3485.22 1257.64 3477.51C1278.84 3465.3 1292.97 3449.24 1300.68 3425.47C1305.18 3411.34 1310.96 3396.56 1318.03 3383.71C1336.02 3349.66 1347.58 3314.97 1339.87 3275.78C1336.02 3257.79 1344.37 3248.16 1360.43 3241.09C1378.42 3232.74 1397.05 3223.74 1411.83 3211.54C1440.1 3187.77 1460.01 3160.14 1456.16 3119.03C1452.95 3081.77 1479.93 3054.14 1499.2 3024.59C1519.76 2993.11 1540.96 2961.63 1564.09 2932.72C1573.73 2920.52 1589.15 2910.88 1603.28 2904.45C1621.27 2896.74 1630.91 2887.11 1633.48 2866.55C1640.54 2817.73 1664.31 2778.54 1700.94 2745.77C1753.62 2698.23 1805.01 2648.76 1857.05 2599.94C1859.62 2598.01 1862.83 2596.08 1863.48 2592.87C1882.11 2527.99 1947 2502.93 1984.9 2454.11C1993.25 2443.83 2010.6 2438.69 2024.73 2435.48C2047.86 2430.34 2065.85 2420.7 2078.06 2399.5C2098.62 2365.45 2131.38 2345.53 2165.43 2326.9C2185.35 2315.98 2203.98 2301.85 2223.25 2289C2230.32 2283.86 2236.75 2276.79 2245.1 2274.22C2296.49 2259.45 2320.91 2220.9 2335.68 2174C2348.53 2134.17 2380.66 2118.75 2413.42 2102.05C2420.49 2098.84 2426.91 2094.34 2432.7 2089.2C2448.76 2073.78 2462.89 2055.8 2480.24 2041.66C2532.28 1999.26 2595.24 1983.84 2660.13 1977.42C2700.6 1972.92 2741.72 1971.64 2776.41 1945.3C2782.84 1940.8 2792.47 1939.51 2801.47 1939.51C2814.96 1938.87 2830.38 1943.37 2841.94 1938.87C2888.84 1921.53 2935.1 1917.67 2983.93 1933.09C2998.06 1937.59 3018.62 1924.1 3035.32 1917.03C3052.67 1909.32 3068.73 1908.68 3085.43 1917.67C3088 1918.96 3091.86 1919.6 3094.43 1920.88C3128.48 1942.73 3159.96 1939.51 3190.15 1913.82C3194.65 1909.96 3201.72 1906.11 3207.5 1906.11C3268.53 1905.47 3327.64 1905.47 3387.39 1905.47Z" fill="#0031D1"/>
<path d="M1469 127.845C1453.59 122.063 1441.38 117.566 1429.17 113.069C1431.1 85.444 1445.23 67.4558 1466.43 59.1041C1490.85 50.11 1517.19 39.831 1542.89 41.1159C1609.06 44.3281 1671.38 25.055 1734.98 13.4912C1765.18 7.70923 1796.02 1.92731 1827.5 0C1799.23 13.4912 1770.96 28.2672 1741.41 39.1886C1720.21 46.8978 1709.28 61.6739 1703.5 81.5894C1697.08 103.432 1685.51 117.566 1662.38 123.348C1621.91 133.627 1604.56 172.815 1576.94 197.87C1557.66 215.216 1544.81 235.774 1544.17 262.114C1543.53 278.175 1536.46 285.242 1521.04 287.169C1516.55 287.811 1512.05 290.381 1506.91 291.024C1482.5 292.308 1473.5 305.8 1470.93 328.927C1465.79 368.758 1447.8 380.965 1407.97 378.395C1391.27 377.11 1374.56 376.468 1357.22 375.825C1351.43 375.825 1343.72 377.11 1339.87 380.322C1282.05 431.717 1217.16 477.33 1179.9 547.998C1161.91 582.047 1145.21 617.381 1127.86 653.358C1115.01 645.648 1100.23 637.297 1081.6 626.375C1086.74 690.619 1052.05 734.947 1014.79 777.99C1009 785.057 1007.72 795.336 1003.86 804.33C991.015 832.597 980.736 862.149 964.674 889.132C955.037 905.193 937.049 916.114 919.702 932.175C911.993 914.829 906.853 903.265 900.428 888.489C886.937 919.969 873.445 948.878 861.881 979.073C851.602 1005.41 838.11 1027.9 811.769 1040.1C798.277 1045.89 793.138 1055.52 795.708 1070.94C796.993 1079.29 795.708 1088.93 796.993 1097.28C798.92 1112.7 793.138 1121.05 778.361 1125.55C753.305 1133.9 735.959 1151.89 720.54 1173.09C693.557 1210.99 664.646 1246.33 655.009 1294.51C651.797 1309.28 632.523 1320.85 622.886 1334.98C616.462 1344.62 610.037 1358.11 611.964 1367.75C617.104 1396.01 608.752 1415.29 590.121 1436.49C567.635 1462.18 551.573 1493.02 532.942 1521.93C484.758 1597.74 435.931 1672.9 408.947 1759.63C406.378 1768.63 396.098 1778.91 387.104 1782.12C359.478 1791.75 345.344 1809.1 345.987 1838.65C346.629 1857.93 336.992 1872.06 323.5 1884.27C296.517 1908.04 270.176 1932.45 243.193 1956.86C237.411 1962 230.986 1968.42 229.059 1975.49C215.567 2029.46 184.087 2071.86 148.752 2112.33C135.26 2127.75 128.835 2149.59 119.199 2168.22C117.914 2170.79 117.914 2174.65 117.271 2177.86C107.634 2232.47 89.6455 2281.29 36.9639 2307.63C68.4444 2369.95 61.3773 2389.86 0.34375 2410.42C3.55604 2394.36 4.84096 2379.58 9.33817 2365.45C20.26 2330.12 28.6119 2293.5 44.0309 2260.73C74.869 2196.49 81.936 2129.03 83.8634 2059.65C84.5058 2040.38 89.003 2025.6 103.78 2013.39C108.277 2010.18 111.489 2005.04 115.986 2001.83C144.897 1981.27 155.819 1956.22 137.187 1922.81C134.618 1917.67 139.115 1904.82 144.254 1900.33C156.461 1889.4 171.238 1881.05 187.299 1870.13C154.534 1825.16 178.305 1792.4 210.428 1761.56C228.417 1744.21 227.774 1743.57 224.562 1701.81C245.763 1682.54 266.322 1667.76 281.098 1648.49C288.808 1638.85 287.523 1622.15 290.735 1606.09C281.098 1606.73 276.601 1607.38 272.104 1607.38C249.618 1608.02 241.908 1598.38 249.618 1577.18C254.757 1563.05 261.824 1548.91 270.819 1536.71C290.093 1509.72 308.724 1482.74 330.567 1458.33C346.629 1440.98 355.623 1423 353.054 1400.51C351.126 1379.95 357.551 1363.89 375.54 1354.26C403.808 1339.48 406.378 1316.35 399.953 1289.37C398.668 1284.23 398.668 1278.45 397.383 1272.02C401.238 1270.1 404.45 1267.53 408.305 1266.88C456.489 1257.89 478.333 1225.13 498.249 1182.08C529.087 1115.27 568.92 1052.95 605.54 989.352C610.68 980.358 620.959 973.291 629.953 966.866C648.585 954.66 664.004 941.811 658.864 915.472C657.579 909.047 667.216 896.841 674.925 892.344C708.333 873.713 724.395 844.161 739.814 810.112C756.518 772.208 784.143 740.086 804.06 703.468C816.909 680.34 827.188 655.285 835.54 629.587C840.68 614.811 845.177 603.248 863.166 601.963C891.434 600.035 908.138 585.902 908.78 555.707C909.423 537.077 919.06 524.87 938.333 521.016C960.819 516.519 974.311 502.385 985.233 481.827C997.44 459.984 1018.64 443.281 1034.7 423.365C1052.05 402.165 1068.11 379.037 1085.46 357.195C1092.52 348.2 1100.88 338.564 1109.87 331.497C1161.91 288.454 1213.31 245.411 1266.63 203.652C1276.91 195.943 1290.4 190.804 1303.25 188.876C1361.07 178.597 1418.89 166.391 1469 127.845Z" fill="#0031D1"/>
</svg>
