<svg xmlns="http://www.w3.org/2000/svg" width="29.732" height="37.396" viewBox="0 0 29.732 37.396">
  <g id="Group_3" data-name="Group 3" transform="translate(54.135 -161.262)">
    <path id="Path_7" data-name="Path 7" d="M-20.445,255.513a5.424,5.424,0,0,1-5.389-7.163c1.022-3.265,2.219-6.486,3.532-9.646a5.213,5.213,0,0,1,7.824-2.286c.652.423,1.206,1.018,1.889,1.368A17.164,17.164,0,0,0-8.48,239.6a7,7,0,0,1,5.386,4.665,3.719,3.719,0,0,1-.182,2.561,5.794,5.794,0,0,1-4.55,3.278c-.917.18-1.836.355-2.758.506a8.878,8.878,0,0,0-5.709,3.1A5.07,5.07,0,0,1-20.445,255.513Z" transform="translate(-21.462 -56.855)" fill="#0443b7"/>
    <path id="Path_8" data-name="Path 8" d="M39.934,203.009c-.022,3.856-3.4,6.051-6.6,4.291a3.863,3.863,0,0,1-2.021-3.467,57.014,57.014,0,0,1,.2-6.742c.158-1.7,1.261-2.212,2.837-1.56C37.811,196.959,39.953,199.83,39.934,203.009Z" transform="translate(-65.434 -26.039)" fill="#0443b7"/>
    <path id="Path_9" data-name="Path 9" d="M-5.269,178.408a5.2,5.2,0,0,1-2.773,4.264,2.782,2.782,0,0,1-3.408-.69,7.7,7.7,0,0,1-1.39-2.263c-.735-1.963-1.373-3.965-1.974-5.975s.5-3.259,2.539-2.915a4.843,4.843,0,0,1,1.817.705,13.433,13.433,0,0,1,4.663,5.27A10.178,10.178,0,0,1-5.269,178.408Z" transform="translate(-29.995 -7.285)" fill="#0443b7"/>
    <path id="Path_10" data-name="Path 10" d="M-46.183,185.659a10.966,10.966,0,0,1,2.082-4.987c.681-.982,1.568-1.029,2.235-.164,1.93,2.5,3.69,5.121,4.205,8.338.375,2.343-1.328,3.88-3.683,3.381A6.4,6.4,0,0,1-46.183,185.659Z" transform="translate(-6.091 -14.273)" fill="#0443b7"/>
    <path id="Path_11" data-name="Path 11" d="M-54.135,235.508c.129-.694.286-1.889.587-3.047a1.339,1.339,0,0,1,1.979-.987,9.837,9.837,0,0,1,5.315,4.147,4.455,4.455,0,0,1-2.624,6.7,3.406,3.406,0,0,1-3.688-1.391C-53.7,239.5-54.032,237.793-54.135,235.508Z" transform="translate(0 -53.674)" fill="#0443b7"/>
    <path id="Path_12" data-name="Path 12" d="M-51.949,220.554l-2.078,1.081v-3.367l.3-.117Z" transform="translate(-0.083 -43.576)" fill="#0443b7"/>
    <path id="Path_13" data-name="Path 13" d="M28.264,183.567a16.149,16.149,0,0,1,1.6,1.065,4.31,4.31,0,0,1,.672.982,5.653,5.653,0,0,1-1.368.766c-.156.04-.557-.517-.7-.861a14.484,14.484,0,0,1-.507-1.728Z" transform="translate(-62.881 -17.085)" fill="#0443b7"/>
    <path id="Path_14" data-name="Path 14" d="M-37.677,168.066l1.181,1.993-2.171.891.638-2.861Z" transform="translate(-11.848 -5.212)" fill="#0443b7"/>
    <path id="Path_15" data-name="Path 15" d="M-17.609,161.262l2.233,1.33-.006.33c-.593.2-1.487.725-1.715.519a5.144,5.144,0,0,1-.854-1.9Z" transform="translate(-27.716)" fill="#0443b7"/>
  </g>
</svg>
