<?xml version="1.0" encoding="utf-8"?>
<!-- Generator: Adobe Illustrator 24.1.3, SVG Export Plug-In . SVG Version: 6.00 Build 0)  -->
<svg version="1.1" id="Layer_1" xmlns="http://www.w3.org/2000/svg" xmlns:xlink="http://www.w3.org/1999/xlink" x="0px" y="0px"
	 viewBox="0 0 32 32" style="enable-background:new 0 0 32 32;" xml:space="preserve">
<style type="text/css">
	.st0{fill:#FFFFFF;}
</style>
<g id="Layer_2_1_">
	<path class="st0" d="M23,22c-0.4-0.4-1-0.4-1.4,0L17,26.6V3c0-0.6-0.4-1-1-1c-0.6,0-1,0.4-1,1v23.5L10.5,22c-0.4-0.4-1-0.4-1.4,0
		c0,0,0,0,0,0c-0.4,0.4-0.4,1,0,1.4l6.4,6.4c0.4,0.3,0.9,0.3,1.3,0l6.4-6.4C23.4,23,23.4,22.4,23,22z"/>
</g>
</svg>
