<?xml version="1.0" encoding="utf-8"?>
<!-- Generator: Adobe Illustrator 24.1.3, SVG Export Plug-In . SVG Version: 6.00 Build 0)  -->
<svg version="1.1" id="Layer_1" xmlns="http://www.w3.org/2000/svg" xmlns:xlink="http://www.w3.org/1999/xlink" x="0px" y="0px"
	 viewBox="0 0 376.7 231.3" style="enable-background:new 0 0 376.7 231.3;" xml:space="preserve">
<style type="text/css">
	.st0{fill:#746E66;stroke:#FFFFFF;stroke-width:10;stroke-linecap:round;stroke-linejoin:round;stroke-miterlimit:10;}
	.st1{fill:#EDEDED;stroke:#FFFFFF;stroke-width:10;stroke-linecap:round;stroke-linejoin:round;stroke-miterlimit:10;}
	.st2{fill:#453E38;stroke:#FFFFFF;stroke-width:10;stroke-linecap:round;stroke-linejoin:round;stroke-miterlimit:10;}
	.st3{fill:#BCBCBC;stroke:#FFFFFF;stroke-width:10;stroke-linecap:round;stroke-linejoin:round;stroke-miterlimit:10;}
	.st4{fill:#453E39;stroke:#FFFFFF;stroke-width:10;stroke-linecap:round;stroke-linejoin:round;stroke-miterlimit:10;}
	.st5{fill:#43403D;stroke:#FFFFFF;stroke-width:10;stroke-linecap:round;stroke-linejoin:round;stroke-miterlimit:10;}
	.st6{fill:#4F4B4A;stroke:#FFFFFF;stroke-width:10;stroke-linecap:round;stroke-linejoin:round;stroke-miterlimit:10;}
	.st7{fill:#26221E;stroke:#FFFFFF;stroke-width:10;stroke-linecap:round;stroke-linejoin:round;stroke-miterlimit:10;}
	.st8{fill:#AA5B5A;stroke:#FFFFFF;stroke-width:10;stroke-linecap:round;stroke-linejoin:round;stroke-miterlimit:10;}
	.st9{fill:#463F38;stroke:#FFFFFF;stroke-width:10;stroke-linecap:round;stroke-linejoin:round;stroke-miterlimit:10;}
	.st10{fill:#474039;stroke:#FFFFFF;stroke-width:10;stroke-linecap:round;stroke-linejoin:round;stroke-miterlimit:10;}
	.st11{fill:#463E38;stroke:#FFFFFF;stroke-width:10;stroke-linecap:round;stroke-linejoin:round;stroke-miterlimit:10;}
	.st12{fill:#433C34;stroke:#FFFFFF;stroke-width:10;stroke-linecap:round;stroke-linejoin:round;stroke-miterlimit:10;}
	.st13{fill:#B7B7B5;stroke:#FFFFFF;stroke-width:10;stroke-linecap:round;stroke-linejoin:round;stroke-miterlimit:10;}
	.st14{fill:#FCFCFC;stroke:#FFFFFF;stroke-width:10;stroke-linecap:round;stroke-linejoin:round;stroke-miterlimit:10;}
	.st15{fill:#2F2A26;stroke:#FFFFFF;stroke-width:10;stroke-linecap:round;stroke-linejoin:round;stroke-miterlimit:10;}
	.st16{fill:#C0BFBD;stroke:#FFFFFF;stroke-width:10;stroke-linecap:round;stroke-linejoin:round;stroke-miterlimit:10;}
	.st17{fill:#C0C0BE;stroke:#FFFFFF;stroke-width:10;stroke-linecap:round;stroke-linejoin:round;stroke-miterlimit:10;}
	.st18{fill:#EEEDED;stroke:#FFFFFF;stroke-width:10;stroke-linecap:round;stroke-linejoin:round;stroke-miterlimit:10;}
	.st19{fill:#EEEEEE;stroke:#FFFFFF;stroke-width:10;stroke-linecap:round;stroke-linejoin:round;stroke-miterlimit:10;}
	.st20{fill:none;stroke:#FFFFFF;stroke-width:10;stroke-linecap:round;stroke-linejoin:round;stroke-miterlimit:10;}
	.st21{fill:#746E66;}
	.st22{fill:#EDEDED;}
	.st23{fill:#453E38;}
	.st24{fill:#BCBCBC;}
	.st25{fill:#453E39;}
	.st26{fill:#43403D;}
	.st27{fill:#4F4B4A;}
	.st28{fill:#26221E;}
	.st29{fill:#AA5B5A;}
	.st30{fill:#463F38;}
	.st31{fill:#474039;}
	.st32{fill:#463E38;}
	.st33{fill:#433C34;}
	.st34{fill:#B7B7B5;}
	.st35{fill:#FCFCFC;}
	.st36{fill:#2F2A26;}
	.st37{fill:#C0BFBD;}
	.st38{fill:#C0C0BE;}
	.st39{fill:#EEEDED;}
	.st40{fill:#EEEEEE;}
	.st41{fill:none;}
</style>
<g>
	<g>
		<path class="st0" d="M355.3,115.1c-3.6,3.7-7.3,7.1-13,5.8c-1.8-0.4-3.4-1.3-4.7-2.5c-5.8-5.1-12.6-8.4-19.6-11.4
			c-1.4-0.6-2.9-0.9-4.2-1.5c-4.2-1.9-8.3-1.2-12.4,0.4c-2.9,1.1-5.8,2.3-8.5,3.8c-0.5,0.3-1.1,0.3-1,1.1
			c-9.1,5.1-17.1,12-26.5,16.6c-0.8,0.4-1.6,0.8-2.2,1c1.3-0.1,2.9-0.7,4.4,0.4c-1.8,0.4-3.6,0.1-5.4,0.3c-0.5,0-1,0-1.4,0.1
			c-0.6,0.1-1.3,0.2-1.6,0.8c-0.2,0.6,0.5,0.8,0.8,1.3c0.3,0.4,0.6,0.8,1.1,1.4c-6.4,0.8-12.3,0.3-18-2.1c-2-0.9-3.9-1.9-5.8-2.8
			c-0.4-0.2-0.8-0.8-1.3-0.4c-0.4,0.3-0.1,0.9-0.1,1.3c0,0.5,0.3,0.9-0.1,1.5c-0.7-0.9-1.4-1.8-2-2.7c-2.8-4.1-5.3-8.4-6.9-13.2
			c-0.5-1.4-1-2.2-2.6-2c1-0.8,0.8-1.8,0.5-3c-1.2-5.1-1.7-10.2-1.5-15.5c0-0.6,0.1-1.3,0-2c-2.6,4.2-3.3,8.7-3.4,13.5
			c0.6,0.4,1.1-0.7,1.6,0c0.3,0.5,0.4,1,0.3,1.5c-0.2,1.9,0.6,3.9-0.8,5.5c-3.6,0.6-7.2,0.9-10.8,1.7c-9.5,2.3-18,6.4-25.7,12.3
			c-0.7,0.8-1.7,0.5-2.6,0.6c-0.4,0-0.8,0-1.1,0c-0.2,0-0.3,0-0.4,0c0,0-0.1,0-0.1,0c-0.1,0-0.1,0-0.2,0l0,0c-0.1,0-0.1,0-0.2,0
			c-0.1,0-0.2,0-0.3,0.1l0,0c-0.2,0-0.3,0.1-0.5,0.1c0,0-0.1,0-0.1,0c-3.9,0.6-7.6,2-11.1,3.7c-0.5,0.3-1.1,0.8-1.6,0.3
			c-0.5-0.5,0.1-1.1,0.5-1.6c0.4-0.6,0.9-1.3,1.3-1.8c-0.3,0.2-0.7,0.3-1.2,0.5c-2.1,0.8-4.1,1.6-6.2,2.2c-0.7,0.2-1.5,0.5-2.3,0.1
			c0,0-0.1,0-0.1-0.1c-0.1-0.1-0.1-0.1-0.2-0.2c-0.6-0.6-0.4-1.3-0.3-2.1c0.1-0.9,0.2-1.8,0.2-2.7c-0.1,1.9-1.2,3.4-1.6,5.2
			c0,0.1,0,0.2-0.1,0.2c0,0,0,0,0,0c-2.1,3.6-3.8,7.4-6.7,10.5c-0.5,0.6-0.9,1.3-1.9,0.8c-0.5-0.3-0.8,0.2-1,0.5
			c-3.4,4.3-6.9,8.6-10.6,12.6c-0.3,0.3-0.1,0.6-0.2,0.9c0,0,0,0,0,0c0,0.1-0.1,0.1-0.1,0.2c-1.2,0.6-2.3,0.6-2.9-0.8
			c0,0,0-0.1,0-0.1c0,0,0,0,0,0c0.2-0.3,0.7-0.4,0.7-0.8c-0.7-0.2-0.9,0.3-1.2,0.7c0,0,0,0-0.1,0.1c-0.1,0.1-0.2,0.2-0.3,0.3
			c-2.8,0-5.3,1.1-7.8,2.3c0.1-0.9-0.3-0.9-1.1-0.8c-1.8,0.4-3.6,0.6-5.9,1c1-1.5,1.8-2.7,2.8-4.2c-3.5,0-6.7,0.3-9.9,0.6
			c-6.2,0.6-12.2,1.9-18,4c-3.8,1.4-7.3,3.2-9.9,6.5c-1.3,1.6-2.7,3.3-5.3,2.7c-0.5-0.1-1.1,0.6-1.7,0.9c-2.5,1.9-4.6,4.3-6.7,6.9
			c-0.6-1-1-1.7-1.6-2.8c-1.1,2-2.2,3.8-3,5.7c-0.6,1.2-1,1-1.8,0.2c-1.6-1.6-2.5-3.5-3-5.6c-0.2-0.9-0.3-1.8-1.6-0.9
			c-0.6,0.4-0.9,0.1-0.9-0.6c-0.2-6.1,1.1-11.5,6.2-15.6c5.6-4.4,12-7.2,18.6-9.6c6.1-2.3,12.4-4,18.7-5.7c1.6-1.3,3.7-1.7,5.5-2.6
			c0.1,0,0.1-0.1,0.2-0.1c0,0,0.1,0,0.1-0.1c2.7-1.4,5.1-3.1,7.2-5.4c0.5-0.6,1-1.2,0.7-2.1c-1.8-5.7-1.8-11.7-2.6-17.6
			c-1-7.5-3.8-14.1-9-19.6c-1.6-1.7-1.5-1.8,0.7-2.9c-3.1-2.8-6.6-4-10.6-4.3c-3.8-0.2-7.4,0.8-10.9,2c-0.5,0.2-1.2,0.7-1.7,0.2
			c-0.5-0.6,0.2-1.2,0.5-1.7c1.4-1.9,3-3.6,3.7-5.9c0.4-1.3,0.8-2.6,0.8-4c0-0.9-0.1-1.9,1.3-2.2c0.7-0.1,0.3-0.8,0.2-1.2
			c-0.4-1.6-1.2-2.8-2.2-4.1c-0.4-0.5-1.1-1-0.8-1.7c0.4-1.5-0.5-1.8-1.5-2.1c-4.4-1.5-10.4,0.2-13.5,3.7c-1.6,1.8-2.9,3.8-4.5,5.6
			c-4.5,5.3-10.4,8.4-17,10.2c-5,1.3-10.1,2.1-15.2,2.7c0,0,0,0-0.1-0.1c0,0,0,0,0,0c-0.5-0.4-0.7-1.1-1-1.5c0,0,0,0,0-0.1
			c-0.1-0.3-0.3-0.4-0.5-0.4c-0.5-0.2-1.2-0.1-1.3-0.9c13.6-0.7,25.6-4.5,33.4-16.7C66,62,71,57,77.6,53.8c3.5-1.7,7.1-3,11-3.7
			c0.2,1.1-1,1.4-0.9,2.6c2.4-0.6,4.7-1.3,7.1-1.1c2.4,0.2,4.4-0.6,6.5-1.6c3.8-1.8,7.7-3.4,11.5-5.1c3.5-1.5,5.4-0.1,4.9,3.7
			c-0.4,2.7-0.9,5.3-1.6,7.9c-0.2,0.6-0.4,1.1,0.1,1.7c-1.6,3.4-2.7,7-5.1,10.1c2.1-1.2,3.3-2.7,4.5-5.3c0.6-1.3,0.8-2.9,1.9-4
			c3.3,0.8,3.4,0.9,1,3.7c9.5-0.6,18.6,2.2,28,1.9c-0.1,1.3-1.4,1.8-1.6,3.1c25.5-2.5,50.4-8.4,75.9-11.7c-0.3,1.3-1.7,1.3-1.9,2.4
			c6.5-1.3,13-2.6,19.5-3.1c1-0.1,1.9-0.3,2.9-0.2c4.5,0.6,8.1-1.3,11.8-3.4c7-4.1,13.3-9.2,19.9-13.8c3.1-2.1,6.2-4,9.5-5.8
			c0.3-0.2,0.6-0.4,1-0.3c0.1,0.8-0.9,1-0.8,1.9c1.3-0.5,2.4-1,3.6-1.4c1.1-0.4,2.2-0.9,3.4-1.3c2.1-0.7,3.6-1.3,5-1.5
			c0.7-0.1,1.4-0.2,2.1-0.1c1.9,0.1,3.8,1.1,7,3c0.9,0.5,0.6,0.8,0,1.3c-2,1.6-4,3.1-5.9,4.7c-0.4,0.3-1,0.5-1.1,1.2
			c2.4,0.4,4.7,0.4,7.1,0.5c3.5,0.1,6.9,0.3,10.4,0.4c1.3,0,1.5,0.3,0.7,1.4c-1.4,2-2.9,4-5.1,6.2c4.1-0.2,7.7-0.4,11.2-0.6
			c-0.4,1.4-1.8,1.7-2.9,2.2c-4.7,2.1-9.6,3.7-14.6,5.1c-0.6,0.2-1.4,0.6-2,0.1c0,0,0,0-0.1-0.1c-0.6-0.6,0-1.3,0.2-2
			c0-0.2,0.1-0.3,0-0.8c-11.8,4.4-24.5,3.5-36.8,7.1c1.4,1.3,2.5,2.3,4.2,2.3c1.8,0,3.6,0,5.4,0.1c0.6,0,1.5-0.2,1.7,0.8l-8.1-0.1
			c1.3,1.6,2.5,2.8,3.5,4.2c4.2,5.9,5.9,12.6,6.6,19.7c0.1,1.4,0.6,2.1,1.8,2.7c5.8,2.8,11.8,2.7,17.9,1.6c3.4-0.6,6.7-1.3,10-2
			c0.6-0.1,1.2-0.2,1.7,0.2c9.3,6.5,19.8,10.9,30.2,15.5c1.9,0.9,3.6,1.9,4.3,4c0.2,0.8,0.9,0.9,1.5,1.1c2.6,0.8,5.2,1.7,7.9,2.5
			c0.8,0.2,1.2,0.5,0.7,1.3c-0.4,0.6-1.3,1.1-1,1.8C353.5,115.2,354.5,114.6,355.3,115.1z"/>
		<path class="st1" d="M31.6,87.8c2.4-1,5-0.9,7.5-1.4c6.2-1.2,12.3-2.5,17.8-5.9c4.2-2.6,7.2-6.4,10.2-10.3c3.8-5,11-6.9,16.2-4.4
			c0.6,0.3,2.5,0.5,0.4,1.7c-0.6,0.3,0.1,0.8,0.4,1.2c1.5,1.7,2.6,3.6,3,5.8c0.1,0.7,0.5,1.7-0.9,0.8c-0.7-0.4-1,0-0.9,0.7
			c0.3,4.7-2,8.3-4.9,11.6c-0.2,0.2-0.3,0.4-0.4,0.6c0,0.1,0,0.2,0,0.4c5.8-2.3,11.7-3.7,17.8-1.5c2.4,0.9,4.6,2.1,6.5,4.1
			c-3,0.7-3,0.8-1,2.9c5.4,5.7,7.8,12.7,8.7,20.3c0.7,5.7,0.8,11.5,2.7,17c0.2,0.5,0,0.8-0.3,1.1c-2.4,2.5-5,4.8-8.3,6.1
			c-1.1-0.5-1.5-1.5-2.1-2.4c-2.2-3.7-3.8-7.7-6-11.5c-0.6-1-1.2-2.1-1.9-3.1c-1.4-2.1-1.3-2.3,1.2-2.9c-2.5-2.4-5.3-4-8.4-5.2
			c-5.7-2.3-11.7-2.8-17.8-2.3c-1.8,0.2-3.6,0.5-5.4,0.5c-0.5,0-1-0.1-1.2,0.4c-3.2-1.2-6.5-1.4-9.8-1.8c-5.2-0.5-10.5-0.5-15.6-1.6
			c-0.6-0.1-1.1-0.5-1.7-0.6c-0.8-0.2-1.2-0.8-1.4-1.5c-0.3-1,1.1-0.3,1-1c1.4,0.5,2.7,1.5,4.2,1.6c0.4,0.7-0.2,0.6-0.4,0.7
			c0.8,0.2,0.9-0.6,1.3-1.1c4-2,8.2-3,12.7-3.1c0.8,0,1.5,0,2.3,0c0.9,0,1.8,0,2.7,0c3,0,4.6-0.9,6.1-3.3c-1.6,2.4-4.2,3.6-7.2,3.1
			c-5.9-1-11.7-0.4-17.5,0.5c-2.7,0.5-5.5,0.6-8.2,0.5c-4.4-0.2-7.9-3.2-8.8-7.4c-0.3-1.3,0.3-1.8,1.4-2.1c2.8-0.9,4.3-3,5.1-5.8
			C31.1,89,31.1,88.2,31.6,87.8z"/>
		<path class="st2" d="M267.5,128.7c-1.8,0-3.6,0-5.4,0c9.3-4.3,17.2-10.9,25.9-16.2c1.2-0.7,2.2-1.7,3.7-1.7
			c3.5,1.5,6.9,3.1,10.3,4.7c5.6,2.8,9.1,7.5,11.9,12.8c0.5,0.9,0.1,1-0.7,1.1c-3,0.3-3,0.3-1.5,3c3.9,7.1,7.2,14.5,9.6,22.2
			c0.1,0.3,0.3,0.5,0.1,0.8c-0.8,0.1-1.1-0.9-2-1.1c0,1.1,0,2.2,0.1,3.3c0.7,7.8-4,13.8-11.8,14.8c-4.4,0.6-3.4,0.8-3.9-3
			c-0.1-0.7,0.3-1.7-0.3-2c-0.8-0.4-1.1,0.7-1.7,0.9c-0.2,0.1-0.3,0.1-0.6,0.2c0.3-3,1.1-5.7,3-8c0.7-0.9,1.5-1.8,2.4-2.4
			c2.2-1.4,2.2-3.3,1.7-5.6c-2-8.6-7.4-14.3-15-18.3C285.2,130.1,276.5,128.6,267.5,128.7z"/>
		<path class="st2" d="M121.1,202.5c-0.2,0.2-0.5,0.4-0.7,0.5c-0.3,0.2-0.5,0.8-1,0.7c-0.6-0.2-0.4-0.8-0.5-1.2
			c-0.1-0.4,0.2-1.1-0.4-1.3c-0.6-0.2-0.7,0.6-0.8,1c-2.1,4.3-5.3,7.3-10,8.6c-3.2,0.9-6.5,1.8-9.5,3.1c-1.3,0.5-1.6-0.4-2-1.1
			c-0.6-1.1-1.2-1.6-2.4-0.8c-0.8,0.6-1.1,0.1-1.2-0.8c-0.2-2.5,0-5,1.3-7.3c2.4-3.2,6-4.3,9.7-5c1.6-0.3,2.6-1,3.6-2.3
			c6.9-10.2,11.4-21.4,15.4-33c0.6-1.8,1.2-3.5,1.8-5.3c0.4-0.9,1.2-1.3,2.2-1.5c1.9-0.3,3.7-1.7,5.8-1c0.2-0.1,0.5-0.1,0.6,0.1
			c0.8,1,1.9,0.8,2.9,0.7c0.5-0.4,1.1-0.3,1.7-0.3c3.9,0.3,7.7,0.4,11.6-0.5c0.5-0.1,1.1-0.2,1.6-0.1c0.5,0.1,0.9,0.3,0.5,1
			c-4.3,5.8-9.5,10.8-13.3,16.9c-0.2,0.3-0.4,0.6-0.8,0.5c-0.4-0.1-0.3-0.5-0.4-0.7c-0.2-0.7-0.3-1.3-0.9-2
			c-0.8,2.2-1.6,4.4-2.4,6.6c-2.1,5.8-4.2,11.6-7.1,17C124.9,197.7,123.2,200.2,121.1,202.5z"/>
		<path class="st2" d="M325.6,49.7c-0.7,2.7-1.7,5.3-2.8,7.9c-0.2,0.5-0.4,1.1-1,1.5c-0.8,1-2,1.2-3.2,1.5c-8.4,2.4-17,2.5-25.6,2.3
			c-5.6-0.1-11.2-0.5-16.9-0.8c-2-0.6-4-0.5-6-0.3c-2.8,0.3-4.4-1.5-6.7-2.9c3-1.1,5.8-1.7,8.6-2.1c6-0.9,12.1-1.5,18.1-2.5
			c4.3-0.7,8.5-1.7,12.7-3.4c-0.5,1.3-0.9,2.4-1.4,3.9c0,0,0,0.1,0,0.1c0,0,0.1,0,0.1,0c6.8-2.1,13.5-3.7,19.4-7.4
			c0.6-0.1,1.2-0.3,1.8-0.4c1-0.2,2.1-1.1,3-0.3C326.7,47.6,325.8,48.7,325.6,49.7z"/>
		<path class="st3" d="M64.7,112.4c-0.1-0.6,0.3-0.9,0.8-0.9c7.8-0.9,15.6-1.4,23.2,1.5c3.7,1.4,7,3.4,9.9,6.2
			c-1,0.8-2.6-0.4-2.9,0.8c-0.2,0.7,1.1,1.8,1.6,2.7c1.6,2.5,2.9,5.1,4.2,7.8c1.3,2.9,2.9,5.7,4.6,8.3c-1.8,1.1-3.8,1.8-5.8,2.4
			c0.1-0.6-0.3-0.9-0.7-1.2c-2.1-2-4-4.1-5.7-6.4c-0.8-1.1-1.3-1.1-1.8,0.3c-0.4,1.1-1.1,2.1-2,2.9c-0.2,0.2-0.5,0.6-0.9,0.5
			c-0.4-0.1-0.4-0.6-0.4-0.9c-1.1-6.8-4.2-12.5-9.3-17.2C75.3,115.3,70.3,113.1,64.7,112.4z"/>
		<path class="st1" d="M179.6,126.6c1.7-0.5,3.4-0.3,5.1-0.4c0.1,0.9-0.6,1.3-1.1,1.7c-2.6,2-4.8,4.4-7,6.9c-1.1,1.3-1.5,3-2.8,4
			c-1.5,0.9-2.3,2.4-3.7,3.5c-6.6,5.4-14.2,8.1-22.5,9c-0.9,0.1-2.2,0.4-2.6-0.6c-0.3-1,1-1.3,1.6-1.9c5.4-4.2,9.1-9.6,10.5-16.4
			c0.1-0.6,0.1-1.2,0.5-1.7c0.2-0.2,0.4-0.4,0.7-0.2c3.3-0.5,6.4-1.9,9.5-3.1c0.3-0.1,0.5-0.2,1-0.1c-0.8,1.2-1.7,2.3-2.5,3.5
			c4.1-1.8,8.1-3.7,12.6-4.1c0.4,0.5,0.9,0.3,1.4,0.2c0.2,0,0-0.3,0,0c0,0.1-0.2,0.1-0.3,0.1C179.8,126.8,179.7,126.7,179.6,126.6z"
			/>
		<path class="st3" d="M334.5,47.3c1.4-0.2,2.8-0.3,4.7-0.6c-2.9,3.2-5.8,5.9-9,8.2c-2,1.5-4.1,2.7-6.3,3.8
			c-0.7,0.3-1.3,0.6-2.1,0.4c1.1-3.5,2.5-6.9,3.6-10.5c0.5-1.6,0.3-2.2-1.4-1.8c-0.4,0.1-0.8,0-1.2,0c4.1-2.9,8.5-5.4,11.9-9.1
			c5.5-6,9.7-12.8,11.8-20.7c0,0,0-0.1,0-0.1c0-0.1,0.2-0.1,0.2-0.2c0.8,2-0.6,13.1-2.1,16.7C342.4,38.9,338.8,43.3,334.5,47.3z"/>
		<path class="st3" d="M158,130.7c-0.5,2.6-1.2,5.1-2.3,7.5c-2.1,4.7-5.4,8.4-9.5,11.4c-0.4,0.3-0.9,0.4-1,1.1
			c1.9,0.4,3.8-0.1,5.6-0.3c7.6-1.2,14.4-4.3,20.2-9.4c0.8-0.7,1.4-1.5,2.1-2.2c0.2-0.2,0.5-0.9,0.7,0c-3.2,4.1-6.6,7.9-11.3,10.4
			c-0.8,0.4-1.1,1.2-1.7,1.8c-2.4,0.6-4.4,1.9-6.7,2.6c-0.3,0.1-0.6,0.3-0.4,0.7c0.6,1.4-0.7,2.1-1.2,3.1c-0.6,0.1,0.2-1.8-1.1-0.8
			c0.1-1-0.5-0.7-1-0.5c-4.8,1-9.6,1.2-14.4,0.4c-0.4-0.3-0.8-0.5-0.2-1.1c3.9-4.3,7.6-8.8,11.2-13.4c0.2-0.3,0.6-0.7,0.8-0.5
			c1.3,1.6,1.5-0.1,2-0.6c2.1-2.4,3.7-5.2,5.1-8c0.3-0.7,0.7-1.4,1.4-1.8C156.7,130.5,157.3,130.2,158,130.7z"/>
		<path class="st4" d="M221.2,112.2c0.6-2.3,0.2-4.6,0.4-6.9c-1.1-0.1-1,1.3-2,1.3c-0.1-5.8,0.8-11.3,4.2-16.3c0.7,1,0.2,2,0.2,2.8
			c-0.4,5.9,0.2,11.7,1.8,17.3c0.5,1.6-0.9,1.2-1.4,1.7C223.3,112.2,222.3,112.3,221.2,112.2z"/>
		<path class="st5" d="M26.2,95.7c-1.5,0.1-1.7,0.7-1.2,2.1c1.7,4.6,4.2,6.4,9.1,6.6c4.8,0.1,9.4-1,14.1-1.5
			c3.1-0.3,6.2-0.2,9.3,0.3c3.8,0.6,6.9-0.3,8.9-3.7c0.2-0.3,0.4-0.5,0.7-0.4c0,2.4-2.9,5.1-5.8,5.5c-1.4,0.2-2.8,0.1-4.1-0.1
			c-4.8-0.4-9.6,0.2-14.3,1c-3.2,0.5-6.3,0.3-9.4,0.1c-6.1-0.3-9-3.1-10-9.9C24.5,95.2,25.4,94.9,26.2,95.7z"/>
		<path class="st6" d="M28.7,84.9c0.5,0.8,1.9-0.2,2.2,1c-1,0.8-1.1,2.1-1.9,3c-1.9,2.3-4.3,3.5-7.2,3.8c-0.1-0.1-0.2-0.2-0.2-0.3
			C19.3,86.5,21.6,84,28.7,84.9z"/>
		<path class="st7" d="M21.8,92.8c0.1-0.2,0.1-0.5,0.5-0.6c3.6-0.7,6.4-2.3,7.5-6c0.2-0.8,0.7-0.4,1.1-0.3c0.3,0.6,0.7,1.1,0.7,1.9
			c-0.2,3.8-2.3,6.9-5.4,7.9c-0.9,0-1.7,0-2.6-0.1C22.9,94.7,22,94,21.8,92.8z"/>
		<path class="st8" d="M33.7,105.5c7.1,0.2,14.1-2,21.2-1.4c0.8,0.1,1.7-0.2,2.4,0.3c-5.3-0.2-10.3,1-15.1,3.2
			c-0.2,0.2-0.4,0.2-0.7,0.1c-1.7-0.1-3.4,0-4.3-1.8C36.1,105.4,34.8,106,33.7,105.5z"/>
		<path class="st9" d="M152.4,157.4c0.2-0.7-0.3-1.8,0.9-2.1c0.3-0.1,0.2-0.6-0.1-0.7c-1.3-0.8-0.5-1,0.3-1.4
			c2.2-0.8,4.4-1.6,6.4-2.8c0.6-0.4,0.7-0.1,0.7,0.4c-2,2.6-4.2,5-6.8,7.1C152.7,159.1,152.4,158.7,152.4,157.4z"/>
		<path class="st10" d="M117.5,58.9c-0.8,2.6-1.7,5.1-3.3,7.2c-1,1.4-2.4,2.4-4.3,3.1c0.4-1.3,1.4-2,1.9-3c1.2-2,2-4,2.9-6.1
			c0.3-0.7,0.2-1.9,1.4-2.1C116.7,58.1,117,58.6,117.5,58.9z"/>
		<path class="st2" d="M126.9,87.9c-2.3-0.8-2.3-0.1-1.7,1.2c2.6,5.6,3.9,11.4,3.5,17.6c-0.1,2.4-0.2,2.5-2.5,2.2
			c-0.9-0.1-1.8-0.2-2.6-0.5c-1.7-0.6-1.9,0.2-1.8,1.5c0.1,1.7,0.2,3.3,0.3,5c0.1,1.4-0.1,2-1.9,1.6c-2.3-0.4-4.1-1.3-6.2-2.9
			c1.7-0.1,2.6,0.9,3.8,1.1c2.4,0.5,2.7,0.2,2.3-2.1c0-0.2-0.1-0.3-0.1-0.5c-0.2-3.3-1.4-5.9-4.9-6.9c-0.4-0.1-0.9-0.3-1.1-1.1
			c2.7,1,5.3,0.7,7.9,0.7c2.1,0,2.4-0.4,1.9-2.5c-1.1-4.5-3-8.7-5.4-12.5c0.4-0.7,1.1,0.2,1.3-0.4c0.3-0.6-0.4-0.9-0.7-1.4
			c-1.6-2.3-3.8-3.9-5.8-5.8c-2.5-2.4-4.4-5.1-5.4-8.6c1.7,1.3,2.8,2.9,4.4,4c3,2.1,6.3,3.4,9.3,5.4C123.4,84.3,125,85.7,126.9,87.9
			z"/>
		<path class="st1" d="M113.9,54.9c-0.9,4.9-2.1,9.7-5.8,13.4c-1.8,1.8-1.9,1.8-3.6-0.1c-0.1-0.1-0.2-0.2-0.2-0.3
			c-0.5-0.8-2-1-1.5-2.4c0.5-1.4,1.7-0.1,2.7-0.7c-1.6-0.8-2-1.9-1.5-3.6c0.2-0.7-0.4-1.4-1.3-0.9c-0.6,0.3-1.2,0.6-1.7,0.9
			c-0.4-0.6-0.1-1,0.2-1.5c2.8-3.9,6.6-6.2,11.2-7.1C114,52.4,114.2,52.8,113.9,54.9z"/>
		<path class="st3" d="M113.9,54.9c0.2-1.7-0.4-2-2-1.6c-4.5,1.1-8,3.5-10.8,7.2c-0.2,0.2-0.2,0.6-0.3,0.8c-0.8,1.1-1.5,0.2-2.2-0.1
			c-1-0.3-2.7-0.1-2.8-1c-0.1-1,1.5-1.5,2.3-2.2c3.5-2.8,7.2-5.3,11.3-7.2c1.3-0.6,2.8-1.4,4-0.3C114.9,51.7,114.5,53.4,113.9,54.9z
			"/>
		<path class="st11" d="M260.1,63.2c-3.8-2.1-7.7-3.5-12.3-3.6C251.6,57.3,257.5,59.1,260.1,63.2z"/>
		<path class="st2" d="M138.2,142.7c-1.6,5.4-5.6,7.1-10.7,7.4C131.5,148.3,135.3,146,138.2,142.7z"/>
		<path class="st9" d="M256.8,64.8c-2.5-1.4-5.1-2.5-8.4-2.1C250.6,60.6,254,61.6,256.8,64.8z"/>
		<path class="st9" d="M158,130.7c-0.6,0.1-1.2,0.2-1.8,0.4c-0.1-0.1-0.3-0.3-0.3-0.4c0.9-2.1,1.6-4.3,2.2-6.9
			c0.7,2.5-0.3,4.6,0.2,6.6C158.3,130.5,158.1,130.6,158,130.7z"/>
		<path class="st12" d="M129,146.1c2.6-1,4.7-2.6,6.8-4.8C134.8,144.6,132.2,146.4,129,146.1z"/>
		<path class="st13" d="M133,155.8c-0.2,0-0.4-0.1-0.6-0.1c-0.8-1.6,1-0.9,1.4-1.4c0.3-0.3,0.7-0.1,0.7,0.4
			C134.6,155.8,133.8,155.8,133,155.8z"/>
		<path class="st14" d="M179.6,126.6c0.5,0,0.9,0.1,1.4,0.1c-1.4,0.9-1.7,0.9-2.1,0C179.1,126.6,179.4,126.6,179.6,126.6z"/>
		<path class="st15" d="M78.6,69.9c-0.9,1.6-2.1,2.9-3.5,3.8c-0.7,0.5-0.9,0.7-0.1,1.4c1.8,1.7,1.9,3.9,0.7,5.7
			c-1.2,1.7-3.5,2.4-5.4,1.5c-2-0.9-2.9-2.7-2.3-5.2c0.1-0.5,0.2-0.9-0.3-1.2c-1.6-1-1.1-2.4-0.8-4.2c1.5,2.7,3.5,2.2,5.4,1.3
			C74.4,72.1,76.5,71,78.6,69.9z"/>
		<path class="st16" d="M102.1,106.6c4.2,3.1,5.7,7.4,3.9,11.7C105.2,114,104.1,110.1,102.1,106.6z"/>
		<path class="st17" d="M72.2,84.1c2.4-0.7,4.1-2.2,5.2-4.6C78.4,82.6,75.9,84.8,72.2,84.1z"/>
		<path class="st14" d="M41.5,107.7c0.2,0,0.5-0.1,0.7-0.1c0.4,0.4,0.3,0.7-0.2,0.7c-0.6,0.1-1.3,0-2,0
			C40.5,107.7,41.2,108.2,41.5,107.7z"/>
		<path class="st18" d="M72.9,78.3c-1-0.1-1.6-0.6-1.6-1.6c0-1.2,1-1.5,1.8-1.6c0.8-0.1,1.4,0.6,1.5,1.4
			C74.5,77.7,73.8,78.2,72.9,78.3z"/>
		<path class="st19" d="M346.4,17.1c-2.1,8-6.2,14.7-11.8,20.7c-3.4,3.7-7.8,6.3-11.9,9.1c-0.6,0.1-1.2,0.3-1.8,0.4
			c-3.6,0.2-7.1,0.4-11.2,0.6c2.1-2.1,3.6-4.1,5.1-6.2c0.8-1.1,0.6-1.4-0.7-1.4c-3.5-0.1-6.9-0.2-10.4-0.4c-2.4-0.1-4.7-0.1-7.1-0.5
			c0.1-0.7,0.7-0.9,1.1-1.2c2-1.6,3.9-3.1,5.9-4.7c0.6-0.4,0.9-0.7,0-1.3c-3.2-1.9-5-2.9-7-3c4.7-0.4,16.7-1.6,30.9-5.3
			C341.9,20.3,345.5,17.9,346.4,17.1z"/>
		<path class="st20" d="M296.6,29.3c-1.3,0.1-2.1,0.1-2.1,0.1"/>
	</g>
	<g>
		<path class="st21" d="M355.3,115.1c-3.6,3.7-7.3,7.1-13,5.8c-1.8-0.4-3.4-1.3-4.7-2.5c-5.8-5.1-12.6-8.4-19.6-11.4
			c-1.4-0.6-2.9-0.9-4.2-1.5c-4.2-1.9-8.3-1.2-12.4,0.4c-2.9,1.1-5.8,2.3-8.5,3.8c-0.5,0.3-1.1,0.3-1,1.1
			c-9.1,5.1-17.1,12-26.5,16.6c-0.8,0.4-1.6,0.8-2.2,1c1.3-0.1,2.9-0.7,4.4,0.4c-1.8,0.4-3.6,0.1-5.4,0.3c-0.5,0-1,0-1.4,0.1
			c-0.6,0.1-1.3,0.2-1.6,0.8c-0.2,0.6,0.5,0.8,0.8,1.3c0.3,0.4,0.6,0.8,1.1,1.4c-6.4,0.8-12.3,0.3-18-2.1c-2-0.9-3.9-1.9-5.8-2.8
			c-0.4-0.2-0.8-0.8-1.3-0.4c-0.4,0.3-0.1,0.9-0.1,1.3c0,0.5,0.3,0.9-0.1,1.5c-0.7-0.9-1.4-1.8-2-2.7c-2.8-4.1-5.3-8.4-6.9-13.2
			c-0.5-1.4-1-2.2-2.6-2c1-0.8,0.8-1.8,0.5-3c-1.2-5.1-1.7-10.2-1.5-15.5c0-0.6,0.1-1.3,0-2c-2.6,4.2-3.3,8.7-3.4,13.5
			c0.6,0.4,1.1-0.7,1.6,0c0.3,0.5,0.4,1,0.3,1.5c-0.2,1.9,0.6,3.9-0.8,5.5c-3.6,0.6-7.2,0.9-10.8,1.7c-9.5,2.3-18,6.4-25.7,12.3
			c-0.7,0.8-1.7,0.5-2.6,0.6c-0.4,0-0.8,0-1.1,0c-0.2,0-0.3,0-0.4,0c0,0-0.1,0-0.1,0c-0.1,0-0.1,0-0.2,0l0,0c-0.1,0-0.1,0-0.2,0
			c-0.1,0-0.2,0-0.3,0.1l0,0c-0.2,0-0.3,0.1-0.5,0.1c0,0-0.1,0-0.1,0c-3.9,0.6-7.6,2-11.1,3.7c-0.5,0.3-1.1,0.8-1.6,0.3
			c-0.5-0.5,0.1-1.1,0.5-1.6c0.4-0.6,0.9-1.3,1.3-1.8c-0.3,0.2-0.7,0.3-1.2,0.5c-2.1,0.8-4.1,1.6-6.2,2.2c-0.7,0.2-1.5,0.5-2.3,0.1
			c0,0-0.1,0-0.1-0.1c-0.1-0.1-0.1-0.1-0.2-0.2c-0.6-0.6-0.4-1.3-0.3-2.1c0.1-0.9,0.2-1.8,0.2-2.7c-0.1,1.9-1.2,3.4-1.6,5.2
			c0,0.1,0,0.2-0.1,0.2c0,0,0,0,0,0c-2.1,3.6-3.8,7.4-6.7,10.5c-0.5,0.6-0.9,1.3-1.9,0.8c-0.5-0.3-0.8,0.2-1,0.5
			c-3.4,4.3-6.9,8.6-10.6,12.6c-0.3,0.3-0.1,0.6-0.2,0.9c0,0,0,0,0,0c0,0.1-0.1,0.1-0.1,0.2c-1.2,0.6-2.3,0.6-2.9-0.8
			c0,0,0-0.1,0-0.1c0,0,0,0,0,0c0.2-0.3,0.7-0.4,0.7-0.8c-0.7-0.2-0.9,0.3-1.2,0.7c0,0,0,0-0.1,0.1c-0.1,0.1-0.2,0.2-0.3,0.3
			c-2.8,0-5.3,1.1-7.8,2.3c0.1-0.9-0.3-0.9-1.1-0.8c-1.8,0.4-3.6,0.6-5.9,1c1-1.5,1.8-2.7,2.8-4.2c-3.5,0-6.7,0.3-9.9,0.6
			c-6.2,0.6-12.2,1.9-18,4c-3.8,1.4-7.3,3.2-9.9,6.5c-1.3,1.6-2.7,3.3-5.3,2.7c-0.5-0.1-1.1,0.6-1.7,0.9c-2.5,1.9-4.6,4.3-6.7,6.9
			c-0.6-1-1-1.7-1.6-2.8c-1.1,2-2.2,3.8-3,5.7c-0.6,1.2-1,1-1.8,0.2c-1.6-1.6-2.5-3.5-3-5.6c-0.2-0.9-0.3-1.8-1.6-0.9
			c-0.6,0.4-0.9,0.1-0.9-0.6c-0.2-6.1,1.1-11.5,6.2-15.6c5.6-4.4,12-7.2,18.6-9.6c6.1-2.3,12.4-4,18.7-5.7c1.6-1.3,3.7-1.7,5.5-2.6
			c0.1,0,0.1-0.1,0.2-0.1c0,0,0.1,0,0.1-0.1c2.7-1.4,5.1-3.1,7.2-5.4c0.5-0.6,1-1.2,0.7-2.1c-1.8-5.7-1.8-11.7-2.6-17.6
			c-1-7.5-3.8-14.1-9-19.6c-1.6-1.7-1.5-1.8,0.7-2.9c-3.1-2.8-6.6-4-10.6-4.3c-3.8-0.2-7.4,0.8-10.9,2c-0.5,0.2-1.2,0.7-1.7,0.2
			c-0.5-0.6,0.2-1.2,0.5-1.7c1.4-1.9,3-3.6,3.7-5.9c0.4-1.3,0.8-2.6,0.8-4c0-0.9-0.1-1.9,1.3-2.2c0.7-0.1,0.3-0.8,0.2-1.2
			c-0.4-1.6-1.2-2.8-2.2-4.1c-0.4-0.5-1.1-1-0.8-1.7c0.4-1.5-0.5-1.8-1.5-2.1c-4.4-1.5-10.4,0.2-13.5,3.7c-1.6,1.8-2.9,3.8-4.5,5.6
			c-4.5,5.3-10.4,8.4-17,10.2c-5,1.3-10.1,2.1-15.2,2.7c0,0,0,0-0.1-0.1c0,0,0,0,0,0c-0.5-0.4-0.7-1.1-1-1.5c0,0,0,0,0-0.1
			c-0.1-0.3-0.3-0.4-0.5-0.4c-0.5-0.2-1.2-0.1-1.3-0.9c13.6-0.7,25.6-4.5,33.4-16.7C66,62,71,57,77.6,53.8c3.5-1.7,7.1-3,11-3.7
			c0.2,1.1-1,1.4-0.9,2.6c2.4-0.6,4.7-1.3,7.1-1.1c2.4,0.2,4.4-0.6,6.5-1.6c3.8-1.8,7.7-3.4,11.5-5.1c3.5-1.5,5.4-0.1,4.9,3.7
			c-0.4,2.7-0.9,5.3-1.6,7.9c-0.2,0.6-0.4,1.1,0.1,1.7c-1.6,3.4-2.7,7-5.1,10.1c2.1-1.2,3.3-2.7,4.5-5.3c0.6-1.3,0.8-2.9,1.9-4
			c3.3,0.8,3.4,0.9,1,3.7c9.5-0.6,18.6,2.2,28,1.9c-0.1,1.3-1.4,1.8-1.6,3.1c25.5-2.5,50.4-8.4,75.9-11.7c-0.3,1.3-1.7,1.3-1.9,2.4
			c6.5-1.3,13-2.6,19.5-3.1c1-0.1,1.9-0.3,2.9-0.2c4.5,0.6,8.1-1.3,11.8-3.4c7-4.1,13.3-9.2,19.9-13.8c3.1-2.1,6.2-4,9.5-5.8
			c0.3-0.2,0.6-0.4,1-0.3c0.1,0.8-0.9,1-0.8,1.9c1.3-0.5,2.4-1,3.6-1.4c1.1-0.4,2.2-0.9,3.4-1.3c2.1-0.7,3.6-1.3,5-1.5
			c0.7-0.1,1.4-0.2,2.1-0.1c1.9,0.1,3.8,1.1,7,3c0.9,0.5,0.6,0.8,0,1.3c-2,1.6-4,3.1-5.9,4.7c-0.4,0.3-1,0.5-1.1,1.2
			c2.4,0.4,4.7,0.4,7.1,0.5c3.5,0.1,6.9,0.3,10.4,0.4c1.3,0,1.5,0.3,0.7,1.4c-1.4,2-2.9,4-5.1,6.2c4.1-0.2,7.7-0.4,11.2-0.6
			c-0.4,1.4-1.8,1.7-2.9,2.2c-4.7,2.1-9.6,3.7-14.6,5.1c-0.6,0.2-1.4,0.6-2,0.1c0,0,0,0-0.1-0.1c-0.6-0.6,0-1.3,0.2-2
			c0-0.2,0.1-0.3,0-0.8c-11.8,4.4-24.5,3.5-36.8,7.1c1.4,1.3,2.5,2.3,4.2,2.3c1.8,0,3.6,0,5.4,0.1c0.6,0,1.5-0.2,1.7,0.8l-8.1-0.1
			c1.3,1.6,2.5,2.8,3.5,4.2c4.2,5.9,5.9,12.6,6.6,19.7c0.1,1.4,0.6,2.1,1.8,2.7c5.8,2.8,11.8,2.7,17.9,1.6c3.4-0.6,6.7-1.3,10-2
			c0.6-0.1,1.2-0.2,1.7,0.2c9.3,6.5,19.8,10.9,30.2,15.5c1.9,0.9,3.6,1.9,4.3,4c0.2,0.8,0.9,0.9,1.5,1.1c2.6,0.8,5.2,1.7,7.9,2.5
			c0.8,0.2,1.2,0.5,0.7,1.3c-0.4,0.6-1.3,1.1-1,1.8C353.5,115.2,354.5,114.6,355.3,115.1z"/>
		<path class="st22" d="M31.6,87.8c2.4-1,5-0.9,7.5-1.4c6.2-1.2,12.3-2.5,17.8-5.9c4.2-2.6,7.2-6.4,10.2-10.3c3.8-5,11-6.9,16.2-4.4
			c0.6,0.3,2.5,0.5,0.4,1.7c-0.6,0.3,0.1,0.8,0.4,1.2c1.5,1.7,2.6,3.6,3,5.8c0.1,0.7,0.5,1.7-0.9,0.8c-0.7-0.4-1,0-0.9,0.7
			c0.3,4.7-2,8.3-4.9,11.6c-0.2,0.2-0.3,0.4-0.4,0.6c0,0.1,0,0.2,0,0.4c5.8-2.3,11.7-3.7,17.8-1.5c2.4,0.9,4.6,2.1,6.5,4.1
			c-3,0.7-3,0.8-1,2.9c5.4,5.7,7.8,12.7,8.7,20.3c0.7,5.7,0.8,11.5,2.7,17c0.2,0.5,0,0.8-0.3,1.1c-2.4,2.5-5,4.8-8.3,6.1
			c-1.1-0.5-1.5-1.5-2.1-2.4c-2.2-3.7-3.8-7.7-6-11.5c-0.6-1-1.2-2.1-1.9-3.1c-1.4-2.1-1.3-2.3,1.2-2.9c-2.5-2.4-5.3-4-8.4-5.2
			c-5.7-2.3-11.7-2.8-17.8-2.3c-1.8,0.2-3.6,0.5-5.4,0.5c-0.5,0-1-0.1-1.2,0.4c-3.2-1.2-6.5-1.4-9.8-1.8c-5.2-0.5-10.5-0.5-15.6-1.6
			c-0.6-0.1-1.1-0.5-1.7-0.6c-0.8-0.2-1.2-0.8-1.4-1.5c-0.3-1,1.1-0.3,1-1c1.4,0.5,2.7,1.5,4.2,1.6c0.4,0.7-0.2,0.6-0.4,0.7
			c0.8,0.2,0.9-0.6,1.3-1.1c4-2,8.2-3,12.7-3.1c0.8,0,1.5,0,2.3,0c0.9,0,1.8,0,2.7,0c3,0,4.6-0.9,6.1-3.3c-1.6,2.4-4.2,3.6-7.2,3.1
			c-5.9-1-11.7-0.4-17.5,0.5c-2.7,0.5-5.5,0.6-8.2,0.5c-4.4-0.2-7.9-3.2-8.8-7.4c-0.3-1.3,0.3-1.8,1.4-2.1c2.8-0.9,4.3-3,5.1-5.8
			C31.1,89,31.1,88.2,31.6,87.8z"/>
		<path class="st23" d="M267.5,128.7c-1.8,0-3.6,0-5.4,0c9.3-4.3,17.2-10.9,25.9-16.2c1.2-0.7,2.2-1.7,3.7-1.7
			c3.5,1.5,6.9,3.1,10.3,4.7c5.6,2.8,9.1,7.5,11.9,12.8c0.5,0.9,0.1,1-0.7,1.1c-3,0.3-3,0.3-1.5,3c3.9,7.1,7.2,14.5,9.6,22.2
			c0.1,0.3,0.3,0.5,0.1,0.8c-0.8,0.1-1.1-0.9-2-1.1c0,1.1,0,2.2,0.1,3.3c0.7,7.8-4,13.8-11.8,14.8c-4.4,0.6-3.4,0.8-3.9-3
			c-0.1-0.7,0.3-1.7-0.3-2c-0.8-0.4-1.1,0.7-1.7,0.9c-0.2,0.1-0.3,0.1-0.6,0.2c0.3-3,1.1-5.7,3-8c0.7-0.9,1.5-1.8,2.4-2.4
			c2.2-1.4,2.2-3.3,1.7-5.6c-2-8.6-7.4-14.3-15-18.3C285.2,130.1,276.5,128.6,267.5,128.7z"/>
		<path class="st23" d="M121.1,202.5c-0.2,0.2-0.5,0.4-0.7,0.5c-0.3,0.2-0.5,0.8-1,0.7c-0.6-0.2-0.4-0.8-0.5-1.2
			c-0.1-0.4,0.2-1.1-0.4-1.3c-0.6-0.2-0.7,0.6-0.8,1c-2.1,4.3-5.3,7.3-10,8.6c-3.2,0.9-6.5,1.8-9.5,3.1c-1.3,0.5-1.6-0.4-2-1.1
			c-0.6-1.1-1.2-1.6-2.4-0.8c-0.8,0.6-1.1,0.1-1.2-0.8c-0.2-2.5,0-5,1.3-7.3c2.4-3.2,6-4.3,9.7-5c1.6-0.3,2.6-1,3.6-2.3
			c6.9-10.2,11.4-21.4,15.4-33c0.6-1.8,1.2-3.5,1.8-5.3c0.4-0.9,1.2-1.3,2.2-1.5c1.9-0.3,3.7-1.7,5.8-1c0.2-0.1,0.5-0.1,0.6,0.1
			c0.8,1,1.9,0.8,2.9,0.7c0.5-0.4,1.1-0.3,1.7-0.3c3.9,0.3,7.7,0.4,11.6-0.5c0.5-0.1,1.1-0.2,1.6-0.1c0.5,0.1,0.9,0.3,0.5,1
			c-4.3,5.8-9.5,10.8-13.3,16.9c-0.2,0.3-0.4,0.6-0.8,0.5c-0.4-0.1-0.3-0.5-0.4-0.7c-0.2-0.7-0.3-1.3-0.9-2
			c-0.8,2.2-1.6,4.4-2.4,6.6c-2.1,5.8-4.2,11.6-7.1,17C124.9,197.7,123.2,200.2,121.1,202.5z"/>
		<path class="st23" d="M325.6,49.7c-0.7,2.7-1.7,5.3-2.8,7.9c-0.2,0.5-0.4,1.1-1,1.5c-0.8,1-2,1.2-3.2,1.5
			c-8.4,2.4-17,2.5-25.6,2.3c-5.6-0.1-11.2-0.5-16.9-0.8c-2-0.6-4-0.5-6-0.3c-2.8,0.3-4.4-1.5-6.7-2.9c3-1.1,5.8-1.7,8.6-2.1
			c6-0.9,12.1-1.5,18.1-2.5c4.3-0.7,8.5-1.7,12.7-3.4c-0.5,1.3-0.9,2.4-1.4,3.9c0,0,0,0.1,0,0.1c0,0,0.1,0,0.1,0
			c6.8-2.1,13.5-3.7,19.4-7.4c0.6-0.1,1.2-0.3,1.8-0.4c1-0.2,2.1-1.1,3-0.3C326.7,47.6,325.8,48.7,325.6,49.7z"/>
		<path class="st24" d="M64.7,112.4c-0.1-0.6,0.3-0.9,0.8-0.9c7.8-0.9,15.6-1.4,23.2,1.5c3.7,1.4,7,3.4,9.9,6.2
			c-1,0.8-2.6-0.4-2.9,0.8c-0.2,0.7,1.1,1.8,1.6,2.7c1.6,2.5,2.9,5.1,4.2,7.8c1.3,2.9,2.9,5.7,4.6,8.3c-1.8,1.1-3.8,1.8-5.8,2.4
			c0.1-0.6-0.3-0.9-0.7-1.2c-2.1-2-4-4.1-5.7-6.4c-0.8-1.1-1.3-1.1-1.8,0.3c-0.4,1.1-1.1,2.1-2,2.9c-0.2,0.2-0.5,0.6-0.9,0.5
			c-0.4-0.1-0.4-0.6-0.4-0.9c-1.1-6.8-4.2-12.5-9.3-17.2C75.3,115.3,70.3,113.1,64.7,112.4z"/>
		<path class="st22" d="M179.6,126.6c1.7-0.5,3.4-0.3,5.1-0.4c0.1,0.9-0.6,1.3-1.1,1.7c-2.6,2-4.8,4.4-7,6.9c-1.1,1.3-1.5,3-2.8,4
			c-1.5,0.9-2.3,2.4-3.7,3.5c-6.6,5.4-14.2,8.1-22.5,9c-0.9,0.1-2.2,0.4-2.6-0.6c-0.3-1,1-1.3,1.6-1.9c5.4-4.2,9.1-9.6,10.5-16.4
			c0.1-0.6,0.1-1.2,0.5-1.7c0.2-0.2,0.4-0.4,0.7-0.2c3.3-0.5,6.4-1.9,9.5-3.1c0.3-0.1,0.5-0.2,1-0.1c-0.8,1.2-1.7,2.3-2.5,3.5
			c4.1-1.8,8.1-3.7,12.6-4.1c0.4,0.5,0.9,0.3,1.4,0.2c0.2,0,0-0.3,0,0c0,0.1-0.2,0.1-0.3,0.1C179.8,126.8,179.7,126.7,179.6,126.6z"
			/>
		<path class="st24" d="M334.5,47.3c1.4-0.2,2.8-0.3,4.7-0.6c-2.9,3.2-5.8,5.9-9,8.2c-2,1.5-4.1,2.7-6.3,3.8
			c-0.7,0.3-1.3,0.6-2.1,0.4c1.1-3.5,2.5-6.9,3.6-10.5c0.5-1.6,0.3-2.2-1.4-1.8c-0.4,0.1-0.8,0-1.2,0c4.1-2.9,8.5-5.4,11.9-9.1
			c5.5-6,9.7-12.8,11.8-20.7c0,0,0-0.1,0-0.1c0-0.1,0.2-0.1,0.2-0.2c0.8,2-0.6,13.1-2.1,16.7C342.4,38.9,338.8,43.3,334.5,47.3z"/>
		<path class="st24" d="M158,130.7c-0.5,2.6-1.2,5.1-2.3,7.5c-2.1,4.7-5.4,8.4-9.5,11.4c-0.4,0.3-0.9,0.4-1,1.1
			c1.9,0.4,3.8-0.1,5.6-0.3c7.6-1.2,14.4-4.3,20.2-9.4c0.8-0.7,1.4-1.5,2.1-2.2c0.2-0.2,0.5-0.9,0.7,0c-3.2,4.1-6.6,7.9-11.3,10.4
			c-0.8,0.4-1.1,1.2-1.7,1.8c-2.4,0.6-4.4,1.9-6.7,2.6c-0.3,0.1-0.6,0.3-0.4,0.7c0.6,1.4-0.7,2.1-1.2,3.1c-0.6,0.1,0.2-1.8-1.1-0.8
			c0.1-1-0.5-0.7-1-0.5c-4.8,1-9.6,1.2-14.4,0.4c-0.4-0.3-0.8-0.5-0.2-1.1c3.9-4.3,7.6-8.8,11.2-13.4c0.2-0.3,0.6-0.7,0.8-0.5
			c1.3,1.6,1.5-0.1,2-0.6c2.1-2.4,3.7-5.2,5.1-8c0.3-0.7,0.7-1.4,1.4-1.8C156.7,130.5,157.3,130.2,158,130.7z"/>
		<path class="st25" d="M221.2,112.2c0.6-2.3,0.2-4.6,0.4-6.9c-1.1-0.1-1,1.3-2,1.3c-0.1-5.8,0.8-11.3,4.2-16.3c0.7,1,0.2,2,0.2,2.8
			c-0.4,5.9,0.2,11.7,1.8,17.3c0.5,1.6-0.9,1.2-1.4,1.7C223.3,112.2,222.3,112.3,221.2,112.2z"/>
		<path class="st26" d="M26.2,95.7c-1.5,0.1-1.7,0.7-1.2,2.1c1.7,4.6,4.2,6.4,9.1,6.6c4.8,0.1,9.4-1,14.1-1.5
			c3.1-0.3,6.2-0.2,9.3,0.3c3.8,0.6,6.9-0.3,8.9-3.7c0.2-0.3,0.4-0.5,0.7-0.4c0,2.4-2.9,5.1-5.8,5.5c-1.4,0.2-2.8,0.1-4.1-0.1
			c-4.8-0.4-9.6,0.2-14.3,1c-3.2,0.5-6.3,0.3-9.4,0.1c-6.1-0.3-9-3.1-10-9.9C24.5,95.2,25.4,94.9,26.2,95.7z"/>
		<path class="st27" d="M28.7,84.9c0.5,0.8,1.9-0.2,2.2,1c-1,0.8-1.1,2.1-1.9,3c-1.9,2.3-4.3,3.5-7.2,3.8c-0.1-0.1-0.2-0.2-0.2-0.3
			C19.3,86.5,21.6,84,28.7,84.9z"/>
		<path class="st28" d="M21.8,92.8c0.1-0.2,0.1-0.5,0.5-0.6c3.6-0.7,6.4-2.3,7.5-6c0.2-0.8,0.7-0.4,1.1-0.3c0.3,0.6,0.7,1.1,0.7,1.9
			c-0.2,3.8-2.3,6.9-5.4,7.9c-0.9,0-1.7,0-2.6-0.1C22.9,94.7,22,94,21.8,92.8z"/>
		<path class="st29" d="M33.7,105.5c7.1,0.2,14.1-2,21.2-1.4c0.8,0.1,1.7-0.2,2.4,0.3c-5.3-0.2-10.3,1-15.1,3.2
			c-0.2,0.2-0.4,0.2-0.7,0.1c-1.7-0.1-3.4,0-4.3-1.8C36.1,105.4,34.8,106,33.7,105.5z"/>
		<path class="st30" d="M152.4,157.4c0.2-0.7-0.3-1.8,0.9-2.1c0.3-0.1,0.2-0.6-0.1-0.7c-1.3-0.8-0.5-1,0.3-1.4
			c2.2-0.8,4.4-1.6,6.4-2.8c0.6-0.4,0.7-0.1,0.7,0.4c-2,2.6-4.2,5-6.8,7.1C152.7,159.1,152.4,158.7,152.4,157.4z"/>
		<path class="st31" d="M117.5,58.9c-0.8,2.6-1.7,5.1-3.3,7.2c-1,1.4-2.4,2.4-4.3,3.1c0.4-1.3,1.4-2,1.9-3c1.2-2,2-4,2.9-6.1
			c0.3-0.7,0.2-1.9,1.4-2.1C116.7,58.1,117,58.6,117.5,58.9z"/>
		<path class="st23" d="M126.9,87.9c-2.3-0.8-2.3-0.1-1.7,1.2c2.6,5.6,3.9,11.4,3.5,17.6c-0.1,2.4-0.2,2.5-2.5,2.2
			c-0.9-0.1-1.8-0.2-2.6-0.5c-1.7-0.6-1.9,0.2-1.8,1.5c0.1,1.7,0.2,3.3,0.3,5c0.1,1.4-0.1,2-1.9,1.6c-2.3-0.4-4.1-1.3-6.2-2.9
			c1.7-0.1,2.6,0.9,3.8,1.1c2.4,0.5,2.7,0.2,2.3-2.1c0-0.2-0.1-0.3-0.1-0.5c-0.2-3.3-1.4-5.9-4.9-6.9c-0.4-0.1-0.9-0.3-1.1-1.1
			c2.7,1,5.3,0.7,7.9,0.7c2.1,0,2.4-0.4,1.9-2.5c-1.1-4.5-3-8.7-5.4-12.5c0.4-0.7,1.1,0.2,1.3-0.4c0.3-0.6-0.4-0.9-0.7-1.4
			c-1.6-2.3-3.8-3.9-5.8-5.8c-2.5-2.4-4.4-5.1-5.4-8.6c1.7,1.3,2.8,2.9,4.4,4c3,2.1,6.3,3.4,9.3,5.4C123.4,84.3,125,85.7,126.9,87.9
			z"/>
		<path class="st22" d="M113.9,54.9c-0.9,4.9-2.1,9.7-5.8,13.4c-1.8,1.8-1.9,1.8-3.6-0.1c-0.1-0.1-0.2-0.2-0.2-0.3
			c-0.5-0.8-2-1-1.5-2.4c0.5-1.4,1.7-0.1,2.7-0.7c-1.6-0.8-2-1.9-1.5-3.6c0.2-0.7-0.4-1.4-1.3-0.9c-0.6,0.3-1.2,0.6-1.7,0.9
			c-0.4-0.6-0.1-1,0.2-1.5c2.8-3.9,6.6-6.2,11.2-7.1C114,52.4,114.2,52.8,113.9,54.9z"/>
		<path class="st24" d="M113.9,54.9c0.2-1.7-0.4-2-2-1.6c-4.5,1.1-8,3.5-10.8,7.2c-0.2,0.2-0.2,0.6-0.3,0.8
			c-0.8,1.1-1.5,0.2-2.2-0.1c-1-0.3-2.7-0.1-2.8-1c-0.1-1,1.5-1.5,2.3-2.2c3.5-2.8,7.2-5.3,11.3-7.2c1.3-0.6,2.8-1.4,4-0.3
			C114.9,51.7,114.5,53.4,113.9,54.9z"/>
		<path class="st32" d="M260.1,63.2c-3.8-2.1-7.7-3.5-12.3-3.6C251.6,57.3,257.5,59.1,260.1,63.2z"/>
		<path class="st23" d="M138.2,142.7c-1.6,5.4-5.6,7.1-10.7,7.4C131.5,148.3,135.3,146,138.2,142.7z"/>
		<path class="st30" d="M256.8,64.8c-2.5-1.4-5.1-2.5-8.4-2.1C250.6,60.6,254,61.6,256.8,64.8z"/>
		<path class="st30" d="M158,130.7c-0.6,0.1-1.2,0.2-1.8,0.4c-0.1-0.1-0.3-0.3-0.3-0.4c0.9-2.1,1.6-4.3,2.2-6.9
			c0.7,2.5-0.3,4.6,0.2,6.6C158.3,130.5,158.1,130.6,158,130.7z"/>
		<path class="st33" d="M129,146.1c2.6-1,4.7-2.6,6.8-4.8C134.8,144.6,132.2,146.4,129,146.1z"/>
		<path class="st34" d="M133,155.8c-0.2,0-0.4-0.1-0.6-0.1c-0.8-1.6,1-0.9,1.4-1.4c0.3-0.3,0.7-0.1,0.7,0.4
			C134.6,155.8,133.8,155.8,133,155.8z"/>
		<path class="st35" d="M179.6,126.6c0.5,0,0.9,0.1,1.4,0.1c-1.4,0.9-1.7,0.9-2.1,0C179.1,126.6,179.4,126.6,179.6,126.6z"/>
		<path class="st36" d="M78.6,69.9c-0.9,1.6-2.1,2.9-3.5,3.8c-0.7,0.5-0.9,0.7-0.1,1.4c1.8,1.7,1.9,3.9,0.7,5.7
			c-1.2,1.7-3.5,2.4-5.4,1.5c-2-0.9-2.9-2.7-2.3-5.2c0.1-0.5,0.2-0.9-0.3-1.2c-1.6-1-1.1-2.4-0.8-4.2c1.5,2.7,3.5,2.2,5.4,1.3
			C74.4,72.1,76.5,71,78.6,69.9z"/>
		<path class="st37" d="M102.1,106.6c4.2,3.1,5.7,7.4,3.9,11.7C105.2,114,104.1,110.1,102.1,106.6z"/>
		<path class="st38" d="M72.2,84.1c2.4-0.7,4.1-2.2,5.2-4.6C78.4,82.6,75.9,84.8,72.2,84.1z"/>
		<path class="st35" d="M41.5,107.7c0.2,0,0.5-0.1,0.7-0.1c0.4,0.4,0.3,0.7-0.2,0.7c-0.6,0.1-1.3,0-2,0
			C40.5,107.7,41.2,108.2,41.5,107.7z"/>
		<path class="st39" d="M72.9,78.3c-1-0.1-1.6-0.6-1.6-1.6c0-1.2,1-1.5,1.8-1.6c0.8-0.1,1.4,0.6,1.5,1.4
			C74.5,77.7,73.8,78.2,72.9,78.3z"/>
		<path class="st40" d="M346.4,17.1c-2.1,8-6.2,14.7-11.8,20.7c-3.4,3.7-7.8,6.3-11.9,9.1c-0.6,0.1-1.2,0.3-1.8,0.4
			c-3.6,0.2-7.1,0.4-11.2,0.6c2.1-2.1,3.6-4.1,5.1-6.2c0.8-1.1,0.6-1.4-0.7-1.4c-3.5-0.1-6.9-0.2-10.4-0.4c-2.4-0.1-4.7-0.1-7.1-0.5
			c0.1-0.7,0.7-0.9,1.1-1.2c2-1.6,3.9-3.1,5.9-4.7c0.6-0.4,0.9-0.7,0-1.3c-3.2-1.9-5-2.9-7-3c4.7-0.4,16.7-1.6,30.9-5.3
			C341.9,20.3,345.5,17.9,346.4,17.1z"/>
		<path class="st41" d="M296.6,29.3c-1.3,0.1-2.1,0.1-2.1,0.1"/>
	</g>
</g>
</svg>
