<?xml version="1.0" standalone="no"?><svg xmlns="http://www.w3.org/2000/svg" viewBox="0 0 1440 320"><path fill="#0099ff" fill-opacity="1" d="M0,288L30,277.3C60,267,120,245,180,208C240,171,300,117,360,85.3C420,53,480,43,540,74.7C600,107,660,181,720,229.3C780,277,840,299,900,288C960,277,1020,235,1080,192C1140,149,1200,107,1260,101.3C1320,96,1380,128,1410,144L1440,160L1440,320L1410,320C1380,320,1320,320,1260,320C1200,320,1140,320,1080,320C1020,320,960,320,900,320C840,320,780,320,720,320C660,320,600,320,540,320C480,320,420,320,360,320C300,320,240,320,180,320C120,320,60,320,30,320L0,320Z"></path></svg>